<svg xmlns="http://www.w3.org/2000/svg" width="182" height="40">
  <g fill="none" fill-rule="evenodd">
    <path fill="#2C406D" d="M19.534 4.744l.777.023.775.049.752.095.73.144.752.168.705.217.706.24.682.264.658.312.658.337 1.247.768 1.152.889 1.08.985.965 1.105.87 1.177.753 1.273.328.648.306.697.26.696.234.697.211.745.165.745.141.744.094.768.047.793.024.792-.024.794-.047.792-.094.768-.14.745-.166.769-.211.72-.235.721-.259.697-.306.673-.328.671-.377.65-.376.624-.87 1.177-.964 1.105-1.081.985-1.152.888-.612.384-.635.385-.658.336-.658.313-.682.264-.706.24-.705.216-.752.168-.73.144-.752.097-.775.047-.777.025-.775-.025-.777-.047-.752-.097-.73-.144-.727-.168-.73-.217-.681-.24-.682-.263-.682-.313-.635-.336-1.246-.769-1.152-.888-1.082-.985-.964-1.105-.87-1.177-.752-1.274-.33-.671-.305-.673-.259-.697-.235-.72-.212-.721-.164-.769-.141-.745-.095-.768-.046-.792-.024-.794.024-.792.046-.793.095-.768.141-.744.164-.745.212-.745.235-.697.26-.696.304-.697.33-.648.752-1.273.87-1.177.964-1.105 1.082-.985 1.152-.889 1.246-.768.635-.337.682-.312.682-.264.681-.24.73-.217.728-.168.729-.144.752-.095.777-.049z"/>
    <path fill="#D1A35A" d="M10.895 4.103l.242.043.221.133.133.199.044.266-.044.242-.133.222-.22.132-.243.045-.266-.045-.199-.132-.132-.222-.044-.242.044-.266.132-.2.2-.132zm2.563-1.283l.243.045.22.133.133.198.045.266-.045.243-.132.22-.221.134-.243.044-.265-.044-.2-.133-.132-.221-.044-.243.044-.266.132-.198.2-.133zm3.204-.64l.243.044.22.133.133.198.045.266-.045.243-.132.221-.22.133-.244.044-.265-.044-.199-.133-.133-.221-.044-.243.044-.266.133-.198.199-.133zm3.205-.642l.242.045.221.132.133.2.044.264-.044.244-.133.22-.221.134-.242.044-.266-.044-.199-.134-.132-.22-.045-.244.045-.265.132-.199.199-.132zm3.203.642l.244.044.22.133.134.198.043.266-.043.243-.134.22-.22.133-.244.045-.265-.045-.2-.132-.132-.221-.043-.243.043-.266.133-.198.199-.133zm2.564.64l.243.045.221.133.133.198.044.266-.044.243-.133.22-.221.134-.243.044-.267-.044-.199-.133-.132-.221-.043-.243.043-.266.132-.198.2-.133zm3.204 1.283l.243.043.222.133.133.199.043.266-.043.242-.133.222-.222.132-.243.045-.265-.045-.199-.132-.132-.222-.045-.242.045-.266.132-.2.199-.132zm2.564 1.923l.242.043.222.133.133.199.043.266-.043.242-.133.222-.222.132-.242.045-.266-.045-.2-.132-.133-.222-.042-.242.042-.266.133-.2.2-.132zm1.921 2.564l.243.043.223.133.132.199.044.266-.044.242-.132.222-.223.132-.243.045-.265-.045-.199-.132-.132-.222-.044-.242.044-.266.132-.199.2-.133zm1.924 2.564l.243.044.221.133.133.199.043.265-.043.243-.133.222-.22.132-.244.044-.266-.044-.2-.132-.132-.222-.043-.243.043-.265.133-.2.199-.132zm1.281 3.205l.243.044.221.133.133.199.044.265-.044.243-.133.222-.22.132-.244.044-.265-.044-.199-.132-.132-.222-.045-.243.045-.265.132-.199.2-.133zm.641 2.564l.243.044.222.132.132.2.044.265-.044.243-.132.221-.222.133-.243.044-.266-.044-.199-.133-.132-.221-.044-.243.044-.266.132-.199.2-.132zm0 3.205l.243.044.222.132.132.2.044.265-.044.244-.132.22-.222.133-.243.044-.265-.044-.199-.133-.133-.22-.044-.244.044-.265.133-.2.199-.132zm.001 3.205l.243.044.22.133.133.2.044.264-.044.244-.132.22-.221.133-.244.044-.266-.044-.199-.133-.132-.22-.044-.244.044-.265.132-.199.2-.133zm-1.282 3.205l.243.044.22.133.133.2.044.264-.044.244-.132.22-.22.133-.244.045-.266-.045-.2-.133-.133-.22-.043-.244.043-.265.134-.199.2-.133zm-1.282 2.565l.243.043.22.133.134.199.043.266-.043.242-.133.222-.221.132-.243.045-.265-.045-.2-.132-.133-.222-.043-.242.043-.266.133-.2.2-.132zm-1.923 2.564l.243.044.221.133.133.199.044.265-.044.243-.133.221-.22.133-.244.044-.266-.044-.199-.133-.132-.221-.044-.243.044-.265.132-.2.2-.132zM30.12 34.23l.243.045.221.133.133.199.044.265-.044.243-.133.22-.221.134-.244.044-.266-.044-.199-.133-.132-.22-.043-.244.043-.265.132-.2.2-.132zm-2.564 1.283l.244.044.22.133.133.198.044.265-.044.244-.133.22-.22.133-.244.045-.265-.045-.2-.133-.132-.22-.044-.244.044-.265.133-.198.2-.133zm-3.203 1.282l.243.045.22.133.133.198.044.265-.044.243-.132.22-.221.133-.243.045-.266-.045-.2-.133-.133-.22-.043-.243.043-.265.133-.198.2-.133zm-3.205.641l.244.044.221.133.133.198.043.265-.043.244-.133.222-.221.132-.244.044-.266-.044-.199-.132-.132-.222-.044-.244.044-.265.132-.198.2-.133zm-3.204 0l.243.044.221.133.133.198.044.265-.044.244-.133.222-.221.132-.243.044-.265-.044-.2-.132-.132-.222-.044-.244.044-.265.133-.198.199-.133zm-3.204-.641l.243.045.22.133.133.198.044.265-.044.243-.133.22-.22.133-.244.045-.265-.045-.198-.133-.133-.22-.044-.243.044-.265.133-.198.198-.133zm-2.564-1.282l.243.044.22.133.133.198.045.265-.045.244-.132.22-.221.133-.243.045-.266-.045-.199-.133-.132-.22-.044-.244.044-.265.132-.198.2-.133zM8.972 34.23l.243.045.22.133.133.198.045.265-.045.244-.132.22-.22.133-.244.045-.265-.045-.2-.133-.132-.22-.044-.244.044-.265.132-.198.2-.133zM7.05 31.667l.243.044.22.133.133.199.044.265-.044.243-.133.22-.22.133-.244.045-.265-.045-.199-.132-.132-.221-.045-.243.045-.265.132-.2.2-.132zm-1.923-1.923l.243.043.22.133.133.2.045.265-.045.243-.132.22-.221.133-.243.045-.265-.045-.2-.132-.132-.221-.044-.243.044-.266.132-.2.2-.132zm-1.923-3.206l.243.045.221.132.133.2.044.264-.044.243-.133.222-.221.132-.243.045-.266-.045-.198-.132-.133-.222-.044-.243.044-.265.133-.199.198-.132zm-.641-3.205l.244.044.221.133.133.2.043.264-.043.244-.133.22-.221.133-.244.044-.265-.044-.198-.133-.133-.22-.044-.244.044-.265.133-.199.198-.133zm-.641-3.205l.243.044.222.132.132.2.044.265-.044.244-.132.22-.222.133-.243.044-.265-.044-.198-.133-.133-.22-.044-.244.044-.265.133-.2.198-.132zm.001-3.205l.242.044.222.132.132.2.044.265-.044.243-.132.221-.222.133-.242.044-.266-.044-.198-.133-.133-.221-.044-.243.044-.266.133-.199.198-.132zm.64-2.564l.244.044.221.133.133.199.043.265-.043.243-.133.222-.221.132-.244.044-.265-.044-.198-.132-.133-.222L1.923 15l.044-.265.133-.199.198-.133zm1.282-3.205l.243.044.222.133.132.199.044.265-.044.243-.132.222-.222.132-.243.044-.265-.044-.199-.132-.132-.222-.045-.243.045-.265.132-.2.199-.132zM5.768 8.59l.243.043.22.133.133.199.044.266-.044.242-.133.222-.22.132-.243.045-.265-.045-.2-.132-.132-.222-.044-.242.044-.266.133-.199.199-.133zm2.563-2.564l.243.044.22.133.133.199.045.265-.045.243-.132.221-.22.133-.244.044-.265-.044-.2-.133-.132-.221-.044-.243.044-.265.132-.2.2-.132zM35.887 20.46l-.024-.835-.072-.836-.095-.812-.142-.812-.192-.788-.215-.788-.263-.765-.286-.74-.334-.716-.358-.716-.383-.693-.43-.644-.452-.645-.479-.621-.524-.597-.55-.574-.549-.524-.597-.526-.62-.478-.645-.454-.668-.43-.67-.381-.715-.383-.716-.31-.74-.31-.764-.239-.764-.215-.788-.191-.811-.143-.812-.096-.835-.072-.836-.023-.836.023-.836.072-.812.096-.81.143-.789.191-.787.215-.764.238-.74.311-.716.31-.717.383-.692.381-.645.43-.645.454-.62.478-.597.526-.573.524-.525.574-.526.597-.477.62-.453.646-.43.644-.382.693-.382.716-.31.717-.311.74-.238.764-.215.788-.191.788-.144.812-.095.812-.071.836-.025.836.025.835.071.837.095.811.144.812.19.788.216.765.238.764.31.74.31.717.383.716.382.669.43.668.453.645.477.62.526.598.525.55.573.549.596.525.621.477.645.454.645.43.692.382.717.358.715.335.74.286.765.262.787.216.788.19.811.144.812.096.836.071.836.024.836-.024.835-.071.812-.096.81-.144.79-.19.763-.216.764-.262.74-.286.716-.335.716-.358.67-.382.667-.43.645-.454.62-.477.597-.525.55-.55.549-.549.524-.597.479-.621.453-.645.43-.668.382-.67.358-.715.334-.717.286-.74.263-.764.215-.765.192-.788.142-.812.095-.811.072-.837.024-.835zM19.558 4.438l.811.024.812.048.812.12.787.142.764.167.764.215.74.263.717.286.716.311.692.358.669.382.644.406.62.454.598.478.596.501.55.526.525.573.5.572.478.598.454.644.406.646.382.668.358.692.31.717.287.716.263.74.214.765.167.787.144.789.119.788.048.812.024.836-.024.812-.048.812-.119.812-.144.788-.167.764-.214.764-.263.74-.286.716-.311.717-.358.693-.382.668-.406.645-.454.621-.477.597-.501.597-.526.55-.549.525-.596.501-.597.478-.62.454-.645.405-.669.383-.692.358-.716.31-.717.287-.74.263-.764.215-.764.166-.787.144-.812.12-.812.047-.811.024-.836-.024-.811-.048-.789-.12-.787-.143-.788-.166-.764-.215-.74-.263-.716-.287-.716-.31-.693-.358-.668-.383-.645-.405-.645-.454-.596-.478-.573-.501-.573-.526-.526-.55-.5-.596-.478-.597-.453-.62-.406-.646-.383-.668-.358-.693-.31-.717-.287-.716-.263-.74-.214-.764-.167-.764-.143-.788-.12-.812-.048-.812-.023-.812.023-.836.048-.812.12-.788.143-.789.167-.787.214-.764.263-.74.287-.717.31-.717.358-.692.383-.668.406-.646.453-.644.477-.598.501-.572.526-.573.573-.526.573-.501.596-.478.645-.454.645-.406.668-.382.693-.358.716-.31.716-.287.74-.263.764-.215.788-.167.787-.143.789-.12.81-.047.837-.024z"/>
    <path fill="#D1A35A" d="M39.092 20.437l-.024-1.002-.072-1.002-.119-.978-.191-.955-.215-.954-.262-.93-.31-.907-.334-.883-.405-.86-.43-.858-.453-.81-.524-.788-.549-.763-.573-.74-.62-.716-.644-.668-.668-.644-.715-.62-.74-.573-.763-.549-.786-.525-.835-.453-.835-.43-.859-.405-.906-.334-.906-.31-.931-.262-.93-.216-.978-.19-.978-.12-1-.071-1.003-.024-1.001.024-1.002.072-.978.12-.954.19-.954.215-.93.261-.907.311-.882.334-.859.406-.858.43-.811.452-.788.525-.763.549-.739.572-.716.62-.667.645-.645.668-.62.716-.572.74-.548.763-.526.787-.452.811-.43.859-.405.86-.334.882-.31.907-.263.93-.214.954-.19.955-.12.978-.072 1.002L0 20.437l.024 1.002.072 1.002.12.978.19.978.214.93.263.931.31.907.334.906.405.86.43.834.452.835.526.787.548.764.572.74.62.716.645.667.667.645.716.62.739.573.763.548.788.525.81.453.859.43.859.405.882.334.907.31.93.263.954.214.954.191.978.12 1.002.071 1.001.024 1.002-.024 1.001-.071.978-.12.979-.19.929-.215.931-.262.906-.31.906-.335.86-.405.834-.43.835-.453.786-.525.764-.548.74-.573.714-.62.668-.645.644-.667.62-.716.573-.74.549-.764.524-.787.454-.835.429-.834.405-.86.334-.906.31-.907.262-.93.215-.93.191-.979.12-.978.071-1.002.024-1.002zM19.534 1.302l.978.025.978.071.954.12.954.166.93.215.906.263.883.31.883.333.834.383.835.429.811.453.763.501.764.525.715.573.691.596.668.644.644.669.597.692.572.715.525.763.5.764.454.811.43.811.38.859.334.86.31.881.263.931.214.907.167.954.12.955.071.978.024.978-.024.978-.071.978-.12.955-.167.953-.214.931-.262.907-.31.883-.335.883-.38.834-.43.835-.454.812-.5.763-.525.764-.572.715-.597.692-.644.668-.668.644-.691.597-.715.572-.764.525-.763.501-.81.454-.836.429-.834.382-.883.334-.883.31-.906.262-.93.215-.954.167-.954.12-.978.07-.978.024-.978-.023-.977-.072-.955-.12-.954-.166-.906-.215-.93-.262-.882-.31-.86-.334-.858-.382-.81-.43-.812-.453-.763-.5-.763-.526-.716-.572-.692-.597-.667-.644-.645-.668-.595-.692-.573-.715-.524-.764-.501-.763-.454-.812-.429-.835-.382-.834-.334-.883-.31-.883-.262-.907-.214-.93-.168-.954-.119-.955-.071-.978-.024-.978.024-.978.071-.978.12-.955.167-.954.214-.907.263-.93.31-.883.333-.86.382-.858.43-.811.453-.811.5-.764.525-.763.573-.715.595-.692.645-.669.667-.644.692-.596.716-.573.763-.525.763-.5.811-.454.811-.43.859-.382.859-.334.881-.31.931-.262.906-.215.954-.166.955-.12.977-.071.978-.025z"/>
    <path fill="#2C406D" d="M180.153 10.513v15.839l.036.384.077.308.036.23.19.305.3.23.19.078.263.077.34.038H182v.46h-5.542v-.46l.641-.038.227-.077.188-.038.264-.23.187-.308.039-.23.074-.307.039-.422V14.464l-.039-.73v-.498l-.036-.307-.113-.345-.189-.269-.188-.115-.304-.038-.337.038-.453.154-.226-.46 3.393-1.381h.528zM166.62 20.769h5.126l-.037-.521-.074-.48-.073-.361-.074-.281-.408-.64-.22-.282-.295-.199-.589-.32-.663-.12-.48.039-.443.16-.443.28-.405.361-.368.48-.26.522-.184.64-.11.722zm-.144.812l.038 1.184.227 1.107.417.916.528.803.643.61.72.458.758.306.794.077.53-.04.53-.114.453-.19.418-.268.415-.381.34-.458.342-.612.303-.726.378.268-.191.879-.3.801-.456.764-.567.726-.644.61-.758.458-.832.268-.908.076-.985-.115-.906-.267-.832-.534-.757-.687-.343-.42-.3-.459-.266-.497-.189-.495-.19-.573-.114-.611-.037-.61-.038-.689.038-.725.076-.686.113-.612.152-.612.227-.533.265-.535.303-.458.34-.42.378-.382.415-.344.418-.267.454-.229.493-.19.491-.115 1.097-.115.91.077.831.229.72.42.68.534.531.688.376.801.227.916.078.993h-7.834zm-5.495-8.504v3.909h2.726v.867l-2.726.04v7.737l.037.512.04.435.117.355.118.236.192.198.197.119.467.079.427-.04.39-.198.351-.355.234-.433h.505l-.232.591-.312.513-.313.434-.388.355-.428.278-.43.236-.426.119-.43.039-.585-.08-.544-.276-.273-.157-.234-.238-.35-.551-.117-.355-.078-.396-.039-.553-.038-.591v-8.053h-1.832v-.394l.7-.396.74-.55.702-.751.623-.908.156-.276.196-.395.233-.513.234-.593h.39zm-10.763 4.487l-.65.12-.685.279-.306.238-.268.319-.266.397-.229.477-.19.557-.115.637-.078.715-.037.755.077 1.273.188 1.194.307 1.073.419.995.268.437.267.358.305.319.305.278.345.199.343.158.38.08.42.04.571-.08.536-.198.457-.319.42-.438.343-.596.268-.795.15-1.034.04-1.193-.04-.756-.036-.756-.114-.675-.153-.637-.422-1.193-.57-.995-.458-.517-.535-.397-.609-.239-.648-.08zm.06-.64l.638.037.602.077.564.152.527.229.488.268.45.343.451.382.414.459.563.878.412.954.265.992.073 1.07-.035.764-.15.801-.226.802-.3.763-.414.764-.45.65-.564.534-.602.458-.639.344-.714.268-.715.152-.75.038-.639-.038-.602-.077-.563-.19-.489-.191-.525-.306-.45-.343-.414-.42-.377-.496-.563-.918-.412-.953-.225-1.032-.076-1.068.037-.764.151-.801.226-.803.338-.764.412-.725.489-.611.526-.535.602-.419.637-.306.676-.229.678-.153.676-.038zm-19.72 2.285h8.037v-5.615l-.038-.465-.04-.387-.077-.271-.197-.27-.351-.273-.545-.232-.625-.076h-.623v-.466h7.45v.466h-.623l-.586.076-.585.232-.351.233-.196.35-.077.27-.04.348-.04.504v12.389l.04.504.078.348.04.272.233.27.313.271.585.232.586.078h.623v.465h-7.45v-.465h.623l.508-.038.428-.116.35-.194.275-.27.117-.272.117-.427.04-.58.038-.697v-5.265h-8.037v5.884l.04.504.077.348.04.272.196.27.35.271.547.232.623.078h.625v.465h-7.45v-.465h.623l.508-.038.428-.116.35-.194.275-.27.117-.272.117-.427.04-.58.038-.697v-11.81l-.039-.464-.04-.387-.078-.271-.195-.27-.351-.273-.545-.232-.625-.076h-.623v-.466h7.45v.466h-.625l-.623.076-.546.232-.314.233-.233.35-.078.27-.039.348-.04.504v5.576zm-20.1.19l.505-.59.506-.51.504-.393.505-.355.466-.274.466-.197.466-.118.466-.039.505.039.428.079.426.157.35.196.31.276.311.354.233.43.233.512.116.471.079.55.078.629v6.326l.038.432.078.354.075.235.158.276.271.195.195.08.231.078.35.04h.39v.47h-5.825v-.47h.271l.699-.04.272-.079.192-.117.274-.315.155-.431.04-.158v-.236l.038-.353V21.56l-.038-.748-.078-.668-.117-.51-.194-.432-.233-.315-.35-.235-.387-.157-.468-.04-.737.118-.738.314-.777.512-.737.745v6.838l.038.43.039.316.078.196.194.315.272.236.194.038.311.08.35.038h.427v.472h-5.787v-.472h.271l.39-.039.349-.079.27-.156.195-.197.117-.274.116-.355.04-.51.038-.59v-5.343l-.038-.747-.04-.55-.038-.354-.117-.392-.154-.235-.235-.118-.31-.04-.388.04-.466.156-.195-.511 3.535-1.414h.544V19.4zm-11.507-1.835l-.649.12-.648.279-.343.238-.268.319-.266.397-.23.477-.19.557-.115.637-.076.715-.04.755.079 1.273.19 1.194.305 1.073.42.995.534.795.305.319.343.278.343.199.344.158.38.08.382.04.572-.08.534-.198.496-.319.42-.438.342-.596.23-.795.153-1.034.037-1.193-.076-1.512-.23-1.312-.189-.597-.229-.596-.267-.518-.306-.477-.495-.517-.534-.397-.572-.239-.686-.08zm.738-.64l.601.037.6.077.565.152.526.229.525.268.452.343.412.382.414.459.602.878.413.954.225.992.075 1.07-.038.764-.15.801-.225.802-.3.763-.414.764-.45.65-.527.534-.601.458-.676.344-.676.268-.752.152-.751.038-.6-.038-.602-.077-.564-.19-.526-.191-.489-.306-.45-.343-.414-.42-.412-.496-.565-.918-.375-.953-.262-1.032-.076-1.068.037-.764.151-.801.263-.803.338-.764.413-.725.45-.611.564-.535.602-.419.639-.306.639-.229.675-.153.714-.038zm-18.943 0h5.36v.457l-.421.038-.307.154-.152.19-.038.268.038.19.077.23.152.23.192.304.153.269.269.343.841 1.338.92-1.338.42-.535.269-.458.192-.344.038-.229-.038-.23-.154-.228-.268-.154-.421-.038v-.458h3.867v.458l-.613.115-.497.23-.307.305-.382.382-.46.535-.498.65-1.57 2.063 2.833 4.203.499.687.421.498.345.381.267.23.536.266.614.116v.42h-5.437v-.42l.497-.077.383-.19.19-.192.04-.267-.04-.192-.152-.306-.269-.458-.344-.535-1.685-2.483-1.838 2.483-.344.535-.268.383-.192.306-.038.152.077.267.23.268.345.23.497.076v.42h-3.753v-.42l.422-.116.383-.229.268-.229.344-.381.46-.536.498-.687 2.412-3.249-2.183-3.17-.421-.612-.382-.496-.346-.383-.268-.229-.574-.267-.689-.077v-.458zm-5.049 0v2.631l.336-.628.374-.511.336-.471.373-.354.375-.314.373-.197.336-.118.374-.039.336.039.3.079.26.118.224.197.3.432.075.274.037.275-.075.473-.225.392-.373.274-.374.08-.224-.04-.224-.079-.26-.156-.263-.197-.448-.315-.187-.077-.15-.04-.223.079-.263.156-.26.315-.263.392-.298.473-.299.589v6.129l.075.392.037.354.112.276.224.314.336.275.523.196.3.04h.373v.47h-5.755v-.47h.413l.336-.08.26-.077.263-.118.261-.276.15-.392.037-.158v-.275l.037-.353V20.89l-.037-.706v-.512l-.037-.274-.112-.354-.187-.235-.262-.118-.261-.04-.411.04-.45.156-.147-.511 3.399-1.414h.523zm-5.84 0v8.106l.037.705v.548l.038.313.115.393.193.234.23.118.268.039.384-.04.46-.157.193.472-3.454 1.448h-.576v-2.467l-.69.744-.614.587-.5.43-.46.276-.767.312-.423.079-.46.039-.46-.04-.423-.117-.383-.156-.384-.275-.345-.313-.268-.353-.23-.352-.155-.431-.115-.508-.077-.588-.076-.666v-6.461l-.04-.314-.075-.275-.077-.195-.192-.275-.306-.195-.192-.079-.308-.078-.345-.04h-.422v-.469h4.03v7.95l.038.745.115.626.153.47.27.313.267.235.345.158.345.077.385.04.575-.079.653-.275.345-.194.422-.314.383-.352.46-.47v-6.699l-.037-.47-.038-.39-.115-.275-.155-.235-.23-.156-.306-.118-.422-.078-.537-.04v-.469h3.952zm-13.315-5.77v5.957h-.469l-.156-.808-.157-.73-.235-.653-.273-.576-.313-.46-.43-.424-.47-.385-.507-.306-.548-.27-.586-.193-.547-.115-.587-.038-.626.038-.586.155-.548.268-.469.346-.392.423-.273.423-.157.46-.039.501.039.422.118.385.156.346.235.307.234.269.314.27.351.268.47.308.508.346.547.345.665.346.704.385 1.094.614.94.5.742.462.548.383.43.346.352.423.313.423.273.461.196.461.156.5.078.461.04.5-.078.96-.313.885-.47.806-.664.731-.821.616-.94.46-1.055.27-1.134.077-.743-.04-.665-.076-.273-.039-.352-.115-.47-.115-.547-.192-.547-.192-.47-.115-.351-.04-.235-.038-.274.038-.235.117-.156.306-.117.5h-.47v-5.88h.47l.195.884.196.73.234.653.275.5.311.424.43.421.47.346.509.347.586.269.626.192.665.115.664.038.782-.038.665-.192.586-.269.51-.345.43-.463.273-.46.196-.539.038-.538-.077-.652-.275-.654-.43-.616-.665-.576-.156-.115-.196-.153-.273-.155-.313-.192-.352-.192-.43-.27-1.017-.538-1.016-.576-.9-.499-.703-.46-.548-.424-.43-.346-.39-.385-.353-.423-.274-.46-.195-.462-.157-.46-.079-.5-.038-.5.078-.922.274-.808.43-.769.626-.73.782-.575.86-.423.978-.23 1.055-.078.704.038.743.115.744.23.742.27.352.154.274.077.235.077h.156l.313-.04.234-.152.196-.269.156-.5h.47z"/>
    <path fill="#FEFEFE" d="M8.331 23.333L9.475 18.1h.364l-.049.696-.024.553.05.696.194.6.292.552.39.48.486.385.585.288.632.168.706.048.633-.048.584-.168.486-.264.414-.36.316-.432.219-.457.122-.504.049-.529-.025-.36-.073-.311-.097-.337-.146-.288-.146-.24-.195-.265-.243-.336-.317-.36-.364-.384-.39-.456-.487-.48-.51-.529-.463-.48-.39-.433-.291-.335-.195-.29-.195-.431-.146-.432-.097-.457-.024-.456.024-.36.049-.36.073-.336.12-.312.172-.312.17-.29.219-.287.267-.264.292-.24.317-.216.316-.169.365-.144.366-.12.389-.071.413-.049.438-.023.585.023.535.072.195.049.268.095.315.12.414.169.268.096.22.072.121.072.073.024.316.024.293-.024.243-.12.122-.12.121-.145.121-.168.146-.24h.39l-1.095 4.66h-.365l.024-.553v-.457l-.048-.6-.146-.528-.268-.504-.365-.433-.463-.336-.51-.264-.61-.144-.656-.048-.536.048-.462.12-.438.192-.365.288-.292.312-.219.36-.122.36-.049.409.025.36.097.36.122.336.195.337.121.168.17.216.22.216.219.264.292.289.291.311.366.337.365.36.365.36.34.36.317.312.268.313.243.264.194.264.171.24.122.216.22.432.145.432.097.457.025.48-.025.529-.122.504-.17.528-.268.505-.316.48-.39.408-.437.36-.511.312-.536.24-.584.168-.608.12-.633.024-.609-.023-.56-.096-.315-.072-.39-.12-.487-.169-.56-.191-.365-.12-.316-.049-.291.048-.268.168-.22.264-.194.36zm12.638-.14h6.407l.981-3.483.118-.48.093-.41.047-.36.023-.311-.023-.265-.094-.216-.164-.169-.233-.12-.164-.024-.21-.047-.304-.025h-.35l.093-.36h5.494l-.116.36h-.328l-.281.049-.257.023-.187.072-.233.12-.188.145-.164.144-.116.169-.165.288-.185.408-.165.456-.164.577-2.455 8.746-.14.432-.093.384-.047.313-.023.24.023.168.047.144.07.144.117.096.187.072.28.072.35.048.47.049-.118.384h-5.284l.163-.384.375-.025.302-.024.235-.048.164-.047.326-.217.259-.264.14-.264.14-.385.163-.504.187-.6 1.217-4.35H20.78l-1.285 4.566-.117.432-.095.384-.046.313-.023.24.023.168.046.144.071.144.118.096.186.072.281.072.35.048.469.049-.094.384H15.38l.117-.384.374-.025.304-.024.234-.048.164-.047.328-.217.256-.264.14-.264.164-.385.164-.504.187-.6 2.362-8.554.14-.48.093-.433.047-.36.023-.288-.023-.265-.093-.216-.165-.169-.233-.12-.163-.024-.234-.047-.304-.025h-.351l.117-.36h5.424l-.116.36h-.327l-.28.049-.235.023-.187.072-.397.241-.165.144-.116.168-.165.288-.162.385-.187.48-.165.577z"/>
  </g>
</svg>
