<svg width="200" height="105" xmlns="http://www.w3.org/2000/svg">
  <g fill="none" fill-rule="evenodd">
    <path fill="#2C406D" d="M99.749 23.292l1.224.037 1.222.075 1.185.149 1.15.223 1.185.261 1.111.337 1.113.373 1.074.41 1.038.485 1.037.523 1.964 1.194 1.816 1.382 1.703 1.53 1.52 1.717 1.37 1.829 1.187 1.979.518 1.007.482 1.082.408 1.083.37 1.082.333 1.157.26 1.158.223 1.156.148 1.194.074 1.233.037 1.23-.037 1.233-.074 1.232-.148 1.194-.222 1.157-.26 1.195-.334 1.119-.37 1.12-.408 1.083-.482 1.045-.518 1.044-.593 1.009-.594.97-1.37 1.83-1.52 1.716-1.703 1.53-1.816 1.382-.963.596-1.001.598-1.037.523-1.038.486-1.074.41-1.113.372-1.111.336-1.186.262-1.149.224-1.185.15-1.222.073-1.224.039-1.222-.039-1.224-.073-1.185-.15-1.15-.224-1.147-.262-1.15-.336-1.074-.373-1.074-.41-1.075-.485-1-.523-1.964-1.194-1.816-1.381-1.705-1.53-1.519-1.718-1.37-1.829-1.186-1.979-.52-1.044-.48-1.045-.408-1.083-.372-1.12-.333-1.12-.259-1.194-.222-1.157-.149-1.194-.073-1.232-.038-1.232.038-1.231.073-1.233.15-1.194.221-1.156.26-1.158.332-1.157.372-1.082.408-1.083.48-1.082.52-1.007 1.185-1.98 1.371-1.828 1.52-1.717 1.704-1.53 1.816-1.382 1.963-1.194 1.001-.523 1.075-.484 1.074-.411 1.075-.373 1.149-.337 1.148-.26 1.149-.224 1.185-.15 1.224-.074z"/>
    <path fill="#D1A35A" d="M85.67 22.322l.406.073.371.224.222.336.075.449-.075.41-.222.373-.371.224-.407.075-.445-.075-.334-.224-.222-.373-.075-.41.075-.449.222-.336.334-.224zM90.078 20.23l.408.076.37.224.222.335.075.448-.075.411-.222.373-.37.225-.408.074-.444-.074-.335-.225-.222-.373-.073-.41.073-.449.222-.335.335-.224zM94.896 18.85l.407.074.37.224.223.336.074.447-.074.411-.223.374-.37.224-.407.074-.445-.074-.333-.224-.224-.374-.073-.41.073-.448.224-.336.333-.224zM99.787 18.402l.406.075.371.223.223.336.074.448-.074.41-.223.373-.37.226-.407.073-.446-.073-.333-.226-.223-.372-.074-.411.074-.448.223-.336.333-.223zM104.604 18.924l.408.075.37.224.223.336.073.448-.073.41-.223.373-.37.224-.408.075-.446-.075-.333-.224-.223-.373-.073-.41.073-.448.223-.336.333-.224zM109.421 20.23l.407.076.371.224.222.335.074.448-.074.411-.222.373-.371.225-.407.074-.447-.074-.333-.225-.222-.373-.072-.41.072-.449.222-.335.333-.224zM113.866 22.322l.408.073.371.224.224.336.072.449-.072.41-.224.373-.37.224-.409.075-.444-.075-.333-.224-.223-.373-.074-.41.074-.449.223-.336.333-.224zM117.87 25.345l.406.073.371.224.223.336.073.45-.073.409-.223.374-.37.223-.407.075-.446-.075-.335-.223-.222-.374-.072-.41.072-.449.222-.336.335-.224zM121.277 28.89l.408.074.372.224.222.336.074.449-.074.41-.222.373-.372.224-.408.075-.445-.075-.333-.224-.222-.374-.073-.41.073-.448.222-.336.333-.224zM124.02 33.07l.408.075.37.224.222.336.073.448-.073.41-.222.374-.37.224-.408.074-.446-.074-.333-.224-.222-.374-.073-.41.073-.448.222-.336.333-.224zM125.946 37.586l.408.075.37.224.222.336.075.448-.075.41-.222.374-.37.224-.408.074-.444-.074-.333-.224-.223-.374-.074-.41.074-.448.223-.336.333-.224zM127.058 42.477l.408.074.371.224.223.336.073.449-.073.41-.223.373-.37.224-.409.075-.445-.075-.334-.224-.222-.374-.073-.41.073-.448.222-.336.334-.224zM127.243 47.441l.408.074.371.224.223.337.073.448-.073.41-.223.373-.37.224-.409.075-.444-.075-.333-.224-.224-.372-.073-.411.073-.448.224-.337.333-.224zM126.577 52.406l.408.073.37.225.222.336.073.448-.073.41-.222.373-.37.224-.408.075-.446-.075-.333-.224-.222-.372-.074-.411.074-.448.222-.336.333-.225zM125.058 57.033l.408.074.37.225.222.336.073.448-.073.41-.222.373-.37.224-.408.075-.445-.075-.334-.224-.224-.372-.072-.411.072-.448.224-.336.334-.225zM122.797 61.438l.408.074.37.224.223.336.074.449-.074.41-.223.373-.37.224-.408.075-.444-.075-.335-.224-.222-.374-.073-.41.073-.448.222-.336.335-.224zM119.685 65.394l.408.075.37.224.222.335.074.448-.074.41-.222.375-.37.224-.408.073-.446-.073-.333-.224-.222-.374-.074-.411.074-.448.222-.335.333-.224zM115.942 68.604l.408.075.371.224.222.336.074.447-.074.411-.222.373-.371.225-.408.074-.446-.074-.333-.225-.222-.373-.072-.41.072-.448.222-.336.333-.224zM111.792 71.142l.408.075.37.224.222.336.075.448-.075.41-.222.373-.37.224-.408.076-.444-.076-.335-.224-.222-.373-.073-.41.073-.448.222-.336.335-.224zM107.087 72.896l.408.077.37.223.222.335.073.448-.073.41-.223.373-.37.224-.407.076-.445-.076-.336-.224-.222-.373-.072-.41.072-.448.222-.335.336-.223zM102.232 73.792l.408.075.371.224.222.335.072.447-.072.413-.222.374-.371.223-.408.074-.446-.074-.333-.223-.222-.374-.074-.413.074-.447.222-.335.333-.224zM97.303 73.792l.408.075.371.224.222.335.074.447-.074.413-.222.374-.371.223-.408.074-.444-.074-.334-.223-.222-.374-.074-.413.074-.447.222-.335.334-.224zM92.45 72.896l.408.077.37.223.222.335.074.448-.074.41-.223.373-.37.224-.407.076-.445-.076-.333-.224-.222-.373-.075-.41.075-.448.222-.335.333-.223zM87.818 71.142l.407.075.371.224.222.336.075.448-.075.41-.222.373-.371.224-.407.076-.445-.076-.334-.224-.222-.373-.073-.41.073-.448.222-.336.334-.224zM83.557 68.567l.407.075.37.225.223.334.074.448-.074.412-.223.371-.37.224-.407.077-.445-.077-.334-.224-.223-.37-.073-.413.073-.448.223-.334.334-.225zM79.85 65.357l.409.075.37.224.222.336.074.447-.074.411-.223.373-.37.224-.407.075-.445-.075-.333-.224-.222-.373-.075-.41.075-.448.222-.336.333-.224zM76.813 61.55l.408.074.37.224.222.337.075.448-.075.41-.222.373-.37.224-.408.075-.444-.075-.335-.224-.222-.373-.073-.41.073-.448.222-.337.335-.224zM74.442 57.107l.406.075.372.224.222.336.074.448-.074.41-.222.374-.372.224-.406.075-.446-.075-.333-.224-.222-.373-.074-.411.074-.448.222-.336.333-.224zM72.922 52.406l.407.073.372.225.222.336.073.448-.073.41-.222.373-.372.224-.407.075-.445-.075-.333-.224-.222-.372-.075-.411.075-.448.222-.336.333-.225zM72.292 47.441l.407.074.372.224.222.337.074.448-.074.41-.222.373-.372.224-.407.075-.445-.075-.333-.224-.222-.372-.075-.411.075-.448.222-.337.333-.224zM72.515 42.477l.407.074.37.224.223.336.075.449-.075.41-.222.373-.371.224-.407.075-.446-.075-.333-.224-.222-.374-.075-.41.075-.448.222-.336.333-.224zM73.552 37.586l.407.075.372.224.222.336.073.448-.073.41-.222.374-.372.224-.407.074-.445-.074-.333-.224-.222-.374-.075-.41.075-.448.222-.336.333-.224zM75.479 33.07l.407.075.372.224.222.336.073.448-.073.41-.222.374-.372.224-.407.074-.445-.074-.333-.224-.222-.374-.075-.41.075-.448.222-.336.333-.224zM78.221 28.89l.408.074.37.224.222.336.075.449-.075.41-.222.373-.37.224-.408.075-.444-.075-.334-.224-.222-.374-.074-.41.074-.448.222-.336.334-.224zM81.63 25.307l.408.075.37.224.222.336.075.447-.075.411-.222.374-.37.224-.408.074-.444-.074-.335-.224-.222-.374-.073-.41.073-.448.222-.336.335-.224zM125.132 47.18l-.038-1.307-.111-1.306-.148-1.27-.22-1.27-.299-1.23-.333-1.231-.408-1.196-.444-1.156-.52-1.12-.555-1.12-.593-1.082-.667-1.008-.703-1.008-.743-.97-.814-.933-.852-.897-.853-.82-.926-.822-.964-.746-1-.71-1.036-.671-1.04-.597-1.11-.598-1.112-.484-1.149-.486-1.186-.373-1.185-.336-1.224-.298-1.258-.224-1.26-.15-1.296-.112-1.298-.037-1.298.037-1.297.112-1.26.15-1.259.224-1.223.298-1.223.336-1.185.373-1.15.486-1.11.484-1.113.598-1.074.597-1 .671-1.002.71-.963.746-.925.822-.89.82-.815.897-.816.932-.74.97-.704 1.01-.667 1.007-.593 1.082-.594 1.12-.48 1.12-.483 1.156-.37 1.196-.333 1.23-.297 1.232-.222 1.27-.148 1.269-.111 1.306-.038 1.306.038 1.306.11 1.308.149 1.268.222 1.27.297 1.23.333 1.196.37 1.194.482 1.156.481 1.12.594 1.12.593 1.046.667 1.045.703 1.007.741.97.816.934.814.859.89.858.926.82.963.747 1.002.71 1 .672 1.074.596 1.113.561 1.11.523 1.15.448 1.185.41 1.223.336 1.223.298 1.259.224 1.26.15 1.297.112 1.298.036 1.298-.036 1.295-.112 1.26-.15 1.26-.224 1.223-.298 1.185-.337 1.186-.41 1.15-.447 1.11-.523 1.111-.56 1.04-.597 1.036-.672 1-.71.964-.746.926-.82.853-.859.852-.859.814-.933.743-.97.703-1.008.667-1.045.593-1.046.556-1.12.519-1.12.444-1.156.408-1.194.333-1.196.298-1.23.221-1.27.148-1.268.111-1.308.038-1.306zM99.787 22.134l1.259.036 1.26.075 1.26.187 1.222.224 1.186.261 1.185.336 1.15.41 1.112.448 1.111.486 1.075.56 1.037.596 1 .635.964.71.927.746.925.784.852.821.816.896.778.895.741.934.705 1.007.63 1.009.592 1.044.555 1.082.483 1.12.444 1.12.408 1.157.333 1.195.26 1.23.223 1.233.184 1.232.075 1.269.036 1.306-.036 1.27-.075 1.269-.184 1.27-.224 1.23-.259 1.195-.333 1.194-.408 1.157-.444 1.12-.483 1.12-.555 1.082-.592 1.045-.63 1.008-.705.97-.741.934-.778.932-.816.859-.852.822-.925.783-.927.747-.964.71-1 .633-1.037.598-1.075.56-1.111.485-1.113.448-1.149.41-1.185.336-1.186.261-1.222.224-1.26.187-1.26.075-1.26.037-1.297-.037-1.259-.075-1.223-.187-1.223-.224-1.223-.26-1.186-.336-1.148-.411-1.112-.448-1.111-.486-1.075-.56-1.037-.597-1-.634-1.002-.71-.925-.746-.89-.783-.89-.822-.815-.859-.778-.932-.741-.933-.703-.97-.63-1.01-.594-1.044-.555-1.082-.483-1.12-.444-1.12-.408-1.157-.333-1.194-.26-1.195-.221-1.23-.186-1.27-.075-1.27-.036-1.269.036-1.306.075-1.27.186-1.23.222-1.233.259-1.231.333-1.195.408-1.157.444-1.12.483-1.12.555-1.082.594-1.044.63-1.009.703-1.007.741-.934.778-.895.816-.896.889-.821.89-.784.925-.746 1.002-.71 1-.635 1.037-.596 1.075-.56 1.111-.486 1.112-.447 1.148-.411 1.186-.336 1.223-.26 1.223-.225 1.223-.187 1.259-.075 1.298-.036z"/>
    <path d="M130.133 47.18l-.036-1.568-.111-1.568-.186-1.53-.297-1.493-.333-1.494-.408-1.455-.48-1.418-.52-1.381-.63-1.344-.667-1.343-.704-1.27-.814-1.231-.853-1.194-.89-1.158-.963-1.12-1-1.044-1.038-1.009-1.111-.97-1.15-.896-1.185-.858-1.222-.822-1.297-.708-1.297-.672-1.334-.635-1.408-.522-1.408-.486-1.447-.41-1.443-.337-1.52-.297-1.52-.187-1.555-.112-1.557-.037-1.555.037-1.557.112-1.52.187-1.482.297-1.482.337-1.444.41-1.41.486-1.37.522-1.334.635-1.333.672-1.26.708-1.224.822-1.186.858-1.147.896-1.113.97-1.036 1.009-1.002 1.044-.963 1.12-.889 1.158-.852 1.194-.816 1.231-.703 1.27-.668 1.343-.629 1.344-.519 1.381-.482 1.418-.408 1.455-.333 1.494-.296 1.493-.186 1.53-.11 1.568-.039 1.567.038 1.568.111 1.567.186 1.532.296 1.53.333 1.455.408 1.456.482 1.418.519 1.418.629 1.345.668 1.306.703 1.306.816 1.231.852 1.195.889 1.157.963 1.12 1.002 1.045 1.036 1.008 1.113.97 1.147.896 1.186.859 1.223.82 1.26.71 1.334.671 1.335.635 1.37.523 1.409.486 1.444.41 1.482.335 1.483.299 1.519.187 1.557.112 1.555.037 1.557-.037 1.556-.112 1.519-.187 1.52-.3 1.443-.335 1.447-.41 1.408-.485 1.408-.523 1.334-.635 1.297-.671 1.297-.71 1.222-.82 1.186-.859 1.149-.895 1.11-.97 1.039-1.01 1-1.043.963-1.121.89-1.157.853-1.195.814-1.23.704-1.307.667-1.306.63-1.345.52-1.418.48-1.418.408-1.456.333-1.455.297-1.53.186-1.532.11-1.567.037-1.568zM99.75 17.243l1.52.038 1.52.112 1.48.187 1.483.26 1.446.337 1.407.41 1.372.485 1.37.523 1.298.598 1.296.671 1.26.71 1.185.783 1.187.82 1.11.897 1.075.933 1.037 1.008 1.001 1.046.927 1.082.889 1.12.816 1.194.776 1.194.706 1.27.667 1.269.592 1.343.519 1.344.482 1.38.408 1.456.332 1.419.26 1.493.186 1.493.11 1.53.037 1.53-.036 1.53-.111 1.532-.186 1.493-.26 1.492-.332 1.456-.408 1.418-.482 1.381-.52 1.382-.591 1.306-.667 1.306-.706 1.27-.776 1.194-.816 1.194-.889 1.12-.927 1.082-1.001 1.045-1.037 1.007-1.074.934-1.111.895-1.187.822-1.185.783-1.26.71-1.296.672-1.297.597-1.371.523-1.372.485-1.407.41-1.446.336-1.483.261-1.48.187-1.52.112-1.52.037-1.519-.037-1.519-.112-1.482-.187-1.482-.26-1.408-.336-1.446-.411-1.37-.485-1.335-.523-1.333-.597-1.26-.672-1.26-.71-1.186-.783-1.185-.822-1.113-.895-1.074-.934-1.037-1.007-1.001-1.045-.926-1.083-.89-1.12-.814-1.193-.778-1.195-.705-1.269-.666-1.306-.594-1.306-.519-1.382-.48-1.381-.409-1.418-.333-1.456-.26-1.492-.184-1.493-.112-1.532-.037-1.53.037-1.53.112-1.53.184-1.493.26-1.493.333-1.419.408-1.456.481-1.38.52-1.344.593-1.343.666-1.27.705-1.269.778-1.194.814-1.195.89-1.119.926-1.082 1.001-1.046 1.037-1.008 1.074-.933 1.113-.896 1.185-.82 1.186-.784 1.26-.71 1.26-.671 1.333-.598 1.335-.523 1.37-.484 1.446-.411 1.408-.336 1.482-.26 1.482-.188 1.52-.112 1.518-.038z" fill="#D1A35A"/>
    <path fill="#D1A35A" d="M99.674 0l-.48.075-.37.261-.261.374-.111.485.074.374.15.335.258.26.297.188L98.6 4.22l-.667 1.716-.702 1.53-.743 1.344-.779 1.12-.814.896-.407.372-.407.337-.41.262-.405.187-.445.147-.408.077h-.446l-.407-.039-.407-.148-.445-.187-.408-.261-.443-.299-.409-.41-.407-.487-.409-.56-.408-.596-.405-.71-.409-.783-.408-.86-.37-.932.26-.149.186-.224.11-.26.036-.3-.074-.41-.222-.336-.296-.224-.408-.076-.407.076-.297.224-.222.336-.075.41.075.41.222.298.297.225.407.075h.113l-.04 1.306-.036 1.158-.074 1.045-.074.896-.073.745-.112.598-.148.449-.148.297-.187.112-.222-.037-.259-.224-.296-.41-.37-.561-.37-.782-.446-.972-.481-1.193.222-.112.15-.188.109-.223.037-.263-.074-.297-.149-.262-.258-.188-.334-.072-.295.072-.26.188-.15.262-.073.297.074.335.15.264.259.147.295.077h.15l.37 1.492.258 1.382.222 1.305.15 1.27.11 2.501L83.928 19l1.889-1.122 1.926-.931 2.002-.747 2-.634 2.002-.45 2.037-.297 2.038-.15 2.077-.037 2.037.112 2.039.262 1.998.371 1.965.486 1.964.635 1.89.708 1.853.86 1.815.934-.037-.785V16.161l.073-1.193.111-1.156.15-1.12.222-1.232.296-1.344.148-.747.15-.783h.183l.334-.075.297-.186.185-.299.075-.337-.075-.335-.185-.298-.297-.189-.334-.074-.333.074-.295.189-.186.298-.073.335.035.262.113.262.184.184.222.114-.259.634-.222.598-.446.97-.37.82-.333.562-.297.41-.258.223-.185.038-.187-.15-.146-.336-.15-.447-.074-.636-.074-.782-.073-.896-.038-1.045-.037-1.158-.038-1.306h.075l.409-.075.333-.225.222-.336.075-.41-.075-.409-.222-.336-.333-.263-.41-.074-.407.074-.333.263-.258.336-.076.408.037.339.149.26.223.224.258.149-.445 1.045-.407.97-.444.823-.445.746-.445.672-.482.522-.445.447-.444.374-.443.299-.484.187-.444.148-.445.039-.443-.039-.444-.073-.447-.189-.445-.222-.408-.262-.443-.336-.814-.858-.78-1.008-.704-1.157-.704-1.343-.63-1.382-.555-1.493-.48-1.568.258-.186.222-.223.148-.336.037-.337-.075-.485-.259-.374-.406-.26z"/>
    <path d="M164.113 86.818V102.234l.035.374.076.298.035.224.187.298.296.224.186.075.258.075.335.037h.407v.447h-5.447v-.447l.63-.037.223-.075.185-.037.26-.224.183-.299.038-.224.074-.299.038-.41V90.663l-.038-.71v-.484l-.036-.299-.11-.336-.186-.262-.186-.112-.298-.036-.332.036-.445.15-.222-.447 3.335-1.345h.519zm-13.007 9.743h5.152l-.038-.486-.075-.448-.073-.335-.074-.262-.41-.597-.22-.262-.297-.186-.592-.298-.667-.112-.482.037-.445.15-.445.26-.407.336-.37.448-.261.486-.185.596-.11.673zm0 .708l.038 1.158.222 1.082.408.896.518.784.629.597.706.448.74.299.778.075.52-.039.518-.112.444-.185.409-.262.406-.373.334-.448.334-.597.297-.71.37.262-.187.858-.294.784-.446.746-.555.71-.63.597-.743.447-.814.262-.89.074-.964-.112-.888-.26-.814-.523-.741-.672-.336-.41-.294-.448-.26-.486-.185-.485-.187-.56-.11-.597-.037-.597-.037-.672.037-.709.074-.671.111-.598.15-.598.222-.521.258-.523.297-.448.333-.41.37-.375.407-.335.41-.261.444-.224.482-.187.48-.112 1.075-.112.89.075.815.224.705.41.666.522.52.673.368.784.222.895.076.97h-7.67zm-5.52-7.95v3.696h2.593v.82l-2.593.039v7.315l.035.485.038.41.111.337.113.223.183.187.187.112.444.075.407-.038.37-.187.334-.336.222-.41h.482l-.221.56-.297.485-.298.41-.369.337-.408.262-.407.224-.407.112-.408.036-.557-.075-.517-.26-.26-.15-.223-.224-.333-.522-.111-.336-.075-.374-.036-.522-.037-.56v-7.615h-1.742v-.372l.666-.374.704-.522.668-.71.592-.858.149-.26.185-.375.223-.484.222-.561h.371zm-10.597 4.18l-.632.113-.665.262-.297.223-.26.3-.259.372-.222.448-.186.522-.11.598-.077.672-.035.708.075 1.194.183 1.121.298 1.007.406.934.26.41.26.336.296.3.297.26.334.187.334.149.37.075.406.037.556-.075.52-.186.444-.299.408-.41.334-.56.26-.747.146-.97.038-1.12-.038-.71-.035-.709-.111-.633-.15-.598-.409-1.12-.554-.933-.444-.486-.52-.372-.591-.224-.63-.075zm.37-.783l.628.037.594.075.555.149.52.224.482.262.444.336.445.372.407.45.556.858.406.932.262.97.072 1.046-.035.746-.148.784-.222.783-.297.747-.408.747-.444.634-.556.523-.593.448-.63.335-.705.263-.705.148-.74.037-.63-.037-.593-.075-.556-.185-.482-.187-.518-.3-.444-.335-.408-.41-.371-.485-.556-.897-.406-.932-.222-1.009-.075-1.044.037-.747.149-.783.222-.785.333-.747.407-.708.482-.598.519-.523.593-.41.63-.298.666-.224.668-.15.667-.037zm-19.084 2.65h7.634V89.955l-.037-.448-.038-.373-.073-.262-.187-.26-.333-.263-.518-.223-.593-.074h-.592v-.45h7.077v.45h-.592l-.557.074-.556.223-.333.224-.186.337-.073.261-.038.336-.038.486v11.943l.038.486.073.335.038.262.222.261.297.26.556.225.557.075h.592v.447h-7.077v-.447h.592l.482-.037.407-.112.333-.187.26-.26.111-.263.111-.41.038-.56.037-.672v-5.076h-7.634v5.673l.038.486.073.335.038.262.186.261.333.26.519.225.592.075h.593v.447h-7.077v-.447h.592l.483-.037.406-.112.334-.187.26-.26.11-.263.112-.41.038-.56.037-.672V89.954l-.037-.448-.038-.373-.074-.262-.186-.26-.333-.263-.518-.223-.594-.074h-.592v-.45h7.077v.45h-.593l-.592.074-.52.223-.297.224-.221.337-.075.261-.036.336-.038.486v5.375zm-19.786-.298l.481-.56.483-.486.48-.372.483-.337.445-.261.444-.187.444-.112.445-.037.482.037.408.075.407.149.334.187.296.262.296.336.223.41.222.485.11.448.075.522.075.597V102.234l.037.41.074.336.072.224.15.262.26.186.185.075.22.075.334.037h.373v.447h-5.559v-.447h.26l.666-.037.26-.075.183-.112.261-.299.148-.41.038-.15v-.224l.037-.335V97.12l-.037-.71-.074-.635-.112-.484-.185-.411-.222-.299-.334-.224-.37-.149-.445-.038-.704.112-.704.299-.741.486-.704.708V102.272l.037.41.036.298.075.187.186.3.258.223.186.037.297.075.333.037h.408v.447h-5.522v-.447h.26l.37-.037.334-.075.259-.149.185-.187.111-.26.111-.338.038-.484.037-.56v-5.076l-.037-.71-.038-.523-.036-.335-.111-.373-.148-.224-.223-.112-.296-.038-.371.038-.445.15-.185-.487 3.372-1.343h.52v2.352zM85.892 93.5l-.63.112-.63.262-.334.223-.26.3-.259.372-.222.448-.185.522-.111.598-.075.672-.038.708.076 1.194.184 1.121.297 1.007.408.934.519.746.296.3.334.26.333.187.333.149.37.075.372.037.555-.075.52-.186.48-.299.408-.41.333-.56.223-.747.149-.97.036-1.12-.074-1.419-.222-1.231-.185-.56-.222-.56-.26-.485-.297-.448-.48-.486-.52-.372-.555-.224-.667-.075zm.406-.784l.594.037.592.075.557.149.519.224.518.262.445.336.407.372.408.45.593.858.408.932.222.97.073 1.046-.036.746-.148.784-.222.783-.297.747-.408.747-.444.634-.52.523-.593.448-.666.335-.667.263-.741.148-.741.037-.592-.037-.594-.075-.555-.185-.52-.187-.482-.3-.444-.335-.408-.41-.407-.485-.556-.897-.37-.932-.26-1.009-.074-1.044.037-.747.149-.783.259-.785.333-.747.408-.708.444-.598.556-.523.593-.41.63-.298.63-.224.667-.15.703-.037zm-18.377.299h5.187v.448l-.408.037-.297.15-.148.185-.036.262.036.186.075.225.148.224.185.298.148.262.26.335.814 1.307.89-1.307.407-.522.26-.448.186-.336.036-.224-.036-.223-.15-.224-.258-.15-.408-.037v-.448h3.743v.448l-.594.112-.48.224-.298.298-.37.373-.444.523-.482.634-1.52 2.016 2.742 4.106.482.672.408.485.333.373.26.224.518.26.594.114v.41h-5.262v-.41l.481-.075.372-.187.184-.187.038-.26-.038-.188-.148-.299-.26-.447-.333-.523-1.63-2.426-1.78 2.426-.333.523-.259.374-.185.298-.037.15.075.26.222.262.333.224.481.075v.41h-3.631v-.41l.408-.113.37-.224.26-.224.333-.373.445-.522.482-.672 2.335-3.173-2.113-3.097-.408-.598-.37-.485-.334-.374-.26-.223-.555-.261-.666-.075v-.448zm-4.559-.299v2.5l.334-.596.371-.486.333-.447.37-.336.372-.3.37-.186.333-.112.371-.037.333.037.297.075.259.112.222.187.297.41.074.262.037.26-.074.45-.223.372-.37.26-.37.076-.223-.037-.222-.075-.26-.15-.26-.186-.444-.299-.185-.074-.148-.038-.222.075-.26.149-.26.299-.26.373-.295.449-.297.56v5.822l.075.372.037.336.11.262.223.3.333.26.52.187.296.037h.37v.447h-5.707v-.447h.409l.333-.075.259-.074.26-.112.259-.262.149-.373.037-.15v-.26l.036-.336v-5.711l-.036-.672v-.485l-.037-.261-.111-.336-.186-.224-.26-.112-.259-.038-.408.038-.445.15-.147-.487 3.372-1.343h.518zm-5.928.299v7.725l.037.673v.522l.037.299.11.374.186.223.223.112.258.037.372-.037.444-.15.186.45-3.335 1.38h-.557v-2.351l-.667.708-.592.56-.482.41-.444.263-.742.297-.407.075-.445.037-.444-.037-.408-.112-.37-.148-.371-.262-.334-.3-.259-.335-.222-.336-.149-.41-.11-.485-.075-.56-.074-.635V94.844l-.038-.299-.073-.262-.074-.186-.186-.262-.295-.185-.186-.075-.297-.075-.333-.037h-.408v-.448h3.892v7.577l.036.71.111.596.148.448.26.298.26.224.332.15.334.074.371.038.556-.075.63-.262.333-.185.408-.3.37-.335.444-.448v-6.383l-.036-.448-.037-.373-.111-.262-.15-.224-.221-.148-.296-.112-.408-.075-.519-.037v-.448h3.817zm-12.97-5.786v5.786h-.444l-.148-.785-.149-.708-.222-.635-.259-.56-.297-.447-.407-.411-.445-.374-.48-.297-.52-.263-.555-.187-.52-.111-.555-.037-.593.037-.556.15-.519.26-.444.336-.372.411-.258.41-.15.449-.036.485.037.41.112.374.148.336.222.299.222.26.297.262.333.261.445.299.482.336.518.335.63.336.668.374 1.036.597.89.486.704.447.519.373.408.336.333.41.297.411.259.448.185.448.148.486.074.447.037.486-.073.932-.297.859-.444.783-.63.71-.778.598-.89.448-1 .26-1.075.075-.705-.038-.63-.074-.258-.038-.334-.112-.444-.112-.52-.185-.518-.187-.445-.112-.333-.038-.222-.037-.26.037-.222.113-.148.297-.111.486h-.446v-5.71h.446l.184.858.186.709.222.634.26.486.295.41.408.41.445.336.482.337.556.261.593.187.63.112.629.037.741-.037.63-.187.556-.26.482-.337.408-.449.259-.447.185-.523.037-.523-.073-.633-.26-.635-.408-.598-.63-.56-.148-.111-.186-.149-.258-.15-.297-.187-.334-.186-.407-.262-.964-.522-.963-.56-.852-.485-.667-.447-.52-.411-.407-.336-.37-.374-.333-.41-.26-.448-.185-.448-.149-.448-.074-.486-.037-.484.075-.896.259-.784.407-.747.594-.708.741-.56.814-.41.927-.225 1-.075.667.037.704.112.705.224.703.262.334.149.26.075.222.075h.148l.296-.038.223-.15.185-.26.148-.486h.444z" fill="#2C406D"/>
    <path d="M56.878 44.642l-.816.074-.74.11-.742.152-.704.224-.63.224-1.187.633-1.035.785-.891.933-.742 1.043-.555 1.197-.407 1.342-.26 1.42-.036 1.528.112 1.606.259 1.717.482 1.793.628 1.829.852 1.904.149.37-.038.077-.111.037-.443-.26-.52-.3-.444-.3-.814-.447-.705-.373-.668-.336-.777-.26-.851-.263-.52-.111-.557-.15-.666-.111-.703-.149H40.352l-1.074.074-1.002.112-.889.187-.852.223-.741.263-.703.334-.63.374-.594.448-.593.522-.52.56-.553.673-.483.708-.519.782-.519.86-.925.897-1.002.783-1.149.634-1.223.486-1.333.374-1.483.222-1.629.15h-1.742l-.557-.26-.444-.3-.258-.335-.04-.224v-.225l.113-.223.185-.15.185-.037.224.037.444.15.481.075.372-.113.296-.112.26-.149.183-.187.26-.447.112-.486-.074-.486-.185-.446-.297-.411-.408-.26-.555-.151-.52-.074h-.48l-.445.037-.409.112-.37.149-.334.225-.26.26-.48.597-.26.71-.11.82.11.86.222.558.371.45.482.41.63.336.704.224.814.224.89.148 1.002.114 1.036.073 1.113.039 2.296.036H31.421l.11.3.187.296.445.562.592.56.668.521.666.485.63.449.556.373.371.336-26.197.037-.371-.486-.37-.486-.26-.259-.26-.188-.333-.148-.407-.075-.742.037-.592.149-.558.225-.518.299-1.037.707-.594.375-.665.372H1.296v.672h68.07l.072-.036.075-.039.038-.185-.038-.15-.075-.111-.26-.113-.222-.112-.072-.038-.038-.075.073-.111.15-.074.37-.15.74-.41.52-.45.37-.484.26-.485.11-.56.039-.596v-.674l-.038-.745-.334-.485-.333-.448-.335-.375-.332-.296-.74-.486-.742-.299-.741-.113-.705.04-.666.184-.557.263-.518.373-.37.41-.26.484-.112.487.038.484.258.486.223.224.26.224.295.187.373.187h.444l.333-.076.26-.15.185-.185.073-.262v-.337l-.073-.371-.15-.411.298-.187.298-.149.258-.076h.297l.52.15.406.374.333.486.186.596.038.635-.15.71-.333.297-.37.3-.37.185-.41.188-.924.184h-.964l-1.038-.11-1.037-.3-1.038-.409-1.037-.486-1-.634-.965-.672-.85-.746-.742-.784-.595-.821-.48-.859-.296-.858-.075-.822-.185-1.53-.037-.784.111-.746.221-.71.41-.673.296-.297.333-.298.37-.299.483-.26.406-.15.518-.038.52.037.557.112.481.186.37.225.259.26.112.3-.446.185-.37.15-.295.226-.223.184-.148.187-.113.188-.073.411.15.371.296.337.369.3.482.223.482.186.52.075.479-.037.41-.149.333-.262.11-.185.039-.226.036-.262v-.334l-.074-.336-.15-.41-.222-.523-.26-.485-.294-.41-.333-.337-.336-.335-.369-.264-.778-.371-.852-.152h-.852l-.854.189-.779.334-.74.523-.666.673-.52.783-.37.934-.147.521-.074.561-.037.56.037.598.074.634.148.672.222.671.26.709-.519-.186-.519-.299-.482-.447-.52-.523-.444-.635-.48-.671-.853-1.494-.779-1.605-.667-1.53-.295-.708-.261-.635-.221-.56-.186-.487-.335-1.045-.258-1.193-.185-1.231-.076-1.158.038-.82.075-.822.148-.784.185-.747.259-.745.335-.71.443-.672.519-.671.519-.448.556-.45.63-.371.704-.336.704-.3.778-.224.778-.11.816-.076.779.075.702.149.704.224.632.262.59.336.556.37.484.413.406.486.371.521.334.522.222.599.186.633.11.673.037.672-.073.71-.11.746-.445.707-.52.6-.555.482-.593.411-.595.264-.592.185-.629.074-.556-.037-.593-.11-.519-.187-.481-.261-.41-.339-.331-.408-.26-.486-.186-.56-.073-.597.038-.225.072-.185.261-.262.333-.15.407-.11.371-.114.369-.148.261-.224.075-.186.036-.188-.11-.335-.186-.299-.26-.187-.334-.113-.406-.035-.408.035-.41.077-.443.187-.407.26-.334.3-.334.409-.26.447-.148.523-.075.598.038.633.186.711.223.56.223.523.332.446.334.45.37.372.446.299.925.522 1.002.336 1.036.112 1.074-.074 1.074-.226 1.003-.447.924-.671.409-.373.371-.449.334-.484.296-.523.26-.6.185-.631.147-.71.075-.71v-.783l-.075-.82-.11-.897-.223-.934-.259-.596-.296-.56-.334-.486-.371-.447-.814-.709-.927-.598-.965-.41-.963-.3-.927-.223-.888-.113-.815.04zM38.943 74.314l-.814-.298-.778-.334-.705-.374-.631-.374-.554-.412-.52-.448-.48-.446-.372-.448-.334-.485-.296-.449-.222-.486-.185-.521-.11-.485-.038-.487v-.484l.184-.97.371-.933.594-.86.408-.41.407-.41.482-.373.555-.337.556-.298.63-.298.704-.261.74-.224.78-.187.815-.15 1.444.075 1.446.262 1.408.446 1.408.561 1.371.71 1.37.783 1.333.895 1.298.934 2.484 2.016 2.333 2.014 1.074.971 1.075.896 1.002.821.924.747.408.26.372.226.778.334.852.3.52.185.555.263-18.566-.075 1.112-.673.89-.783.705-.859.519-.895.332-.934.186-.932v-.97l-.15-.934-.295-.933-.482-.896-.592-.82-.742-.748-.853-.633-1-.56-1.11-.41-1.223-.3-.89.037-.815.15-.703.298-.594.41-.519.448-.37.522-.223.599-.148.56.038.56.146.557.26.488.445.41.593.335.74.224.89.076h.518l.556-.076.631-.298.592-.224.557-.15.52-.11.444-.039h.37l.37.074.297.113.26.15.184.224.185.224.113.26.073.597-.073.673-.298.71-.444.708-.594.709-.813.633-.965.561-1.111.41-.594.15-.666.149-.704.039-.74.037-.891-.3zM27.827 70.32l2.336-1.454.665-.524.038.598.036 1.418-3.075-.038z" fill="#D1A35A"/>
    <path fill="#D1A35A" d="M32.237 59.721l.036.523.15.335.258.186.297.075.408-.037.48-.112.52-.15.593-.224 1.37-.484.741-.262.78-.186.814-.112.852-.038.889.038.89.186.852.187.741.149 1.334.335 1.334.374.704.261.779.336-.371-.485-.52-.486-.74-.484-.853-.486-.963-.485-1.075-.41-1.147-.373-1.187-.262-1.186-.224-1.222-.112-1.15.038-1.074.15-1.038.298-.889.448-.407.299-.37.335-.334.411zM45.205 53.972l.075.187.074.224.259.56.333.673.372.671.406.635.408.523.371.335.184.112.15.037v-.26l-.112-.411-.185-.486-.186-.56-.222-.56-.148-.597-.074-.56.036-.484V53.6l.075-.411.297-.859.37-.895.37-.822.223-.82.037-.374-.037-.336-.148-.335-.223-.3-.37-.26-.481-.224-.557.186-.445.224-.37.262-.333.299-.222.335-.186.336-.149.41-.073.41-.038.859.111.897.186.895zM48.948 60.467l-.889-1.082-.927-1.157-.963-1.158-.964-1.082-.518-.448-.52-.41-.517-.3-.557-.223-.555-.15h-.593l-.593.113-.63.26-.148.411-.036.374.073.336.149.298.222.262.295.26.742.411.852.374.89.298.814.299.705.262.148.112.222.223.297.261.333.299.78.672.777.634.37.3.333.223.26.149.222.075.148-.037.038-.15-.074-.26zM53.173 59.497l-.111.597-.075.746-.074.822.037.895.148.934.259.895.408.859.26.372.333.374-.11-.933.036-.82.11-.71.223-.635.297-.56.333-.485.667-.82.297-.375.26-.335.184-.3.075-.297-.075-.299-.184-.299-.372-.335-.555-.373h-.445l-.407.074-.63.187-.52.335zM55.84 71.739l-.37-.26-.297-.113-.296-.149-.296-.262-.297-.299-.63-.707-.592-.748-.668-.672-.334-.261-.333-.224-.333-.112h-.37l-.372.075-.37.224-.185.56v.484l.111.486.259.448.371.372.408.337.519.336.517.26 1.113.337.555.112.52.076h.48l.408-.038.297-.112zM49.911 73.606l-.036.299.036.297.111.224.222.189.26.147.334.038h.408l.48-.112.816-.374.742-.224.74-.111.742-.037.778.075.778.149.888.148.964.224-.148-.372-.297-.373-.37-.299-.444-.299-.557-.262-.592-.224-.667-.187-.668-.112-.666-.112h-.667l-.667.039-.63.112-.593.148-.52.264-.444.334zM0 78.42h74.7v-1.083H0zM168.374 68.978v1.418l3.076-.038-2.335-1.456-.667-.522-.074.598zm-.52 2.873l-.11.3-.186.298-.444.56-.594.558-.666.524-.704.486-.63.448-.519.372-.37.336 26.16.038.371-.486.407-.484.26-.262.259-.187.333-.15.408-.074.74.037.594.15.556.224.519.299 1 .71.593.37.704.376h1.445v.67h-68.105l-.15-.074-.036-.187.036-.148.112-.112.26-.112.222-.112.074-.038.037-.074-.074-.112-.148-.076-.371-.148-.704-.41-.555-.448-.371-.486-.223-.485-.147-.56-.038-.597v-.672l.038-.748.333-.484.333-.45.334-.37.333-.3.741-.485.741-.298.741-.112.705.036.667.188.555.26.52.373.37.411.26.486.11.485-.074.484-.259.486-.186.223-.258.223-.335.189-.37.187h-.444l-.334-.075-.26-.15-.148-.186-.074-.26v-.337l.038-.374.148-.41-.297-.186-.297-.151-.259-.073h-.296l-.482.149-.445.373-.334.484-.184.597v.636l.148.71.333.298.371.298.37.187.408.187.927.187h.963l1-.112 1.075-.3 1.038-.41 1.036-.484 1.002-.635.925-.673.852-.747.742-.784.593-.82.481-.858.297-.858.074-.822.223-1.53.036-.784-.11-.746-.223-.71-.408-.671-.295-.3-.335-.298-.407-.3-.482-.26-.408-.149-.48-.038-.556.038-.52.112-.482.186-.37.224-.26.262-.11.299.444.185.37.15.298.224.222.187.147.186.112.187.037.41-.11.373-.297.336-.372.3-.48.223-.52.187-.519.075-.48-.038-.408-.149-.334-.26-.074-.188-.075-.224-.036-.262.036-.335.038-.336.148-.411.222-.523.259-.484.297-.411.333-.336.371-.336.37-.262.78-.372.851-.15h.853l.814.187.816.335.741.523.667.673.519.783.37.934.149.521.073.561.038.56-.038.596-.073.635-.15.672-.222.672-.258.709.518-.186.518-.299.482-.447.52-.523.444-.635.48-.671.853-1.494.78-1.605.666-1.53.297-.71.259-.634.222-.56.185-.486.334-1.044.26-1.194.184-1.233.073-1.157-.146-1.642-.111-.783-.186-.747-.26-.747-.37-.708-.408-.673-.519-.671-.519-.448-.555-.448-.63-.374-.703-.336-.742-.298-.74-.224-.779-.112-.815-.074-.778.074-.705.15-.703.224-.63.26-.593.336-.556.374-.482.411-.407.485-.408.522-.296.523-.26.597-.148.634-.113.672-.035.673.035.708.113.747.444.71.52.596.555.486.593.41.592.261.63.187.594.074.592-.037.557-.112.555-.187.445-.26.444-.336.334-.411.26-.486.184-.56.075-.596-.037-.224-.075-.187-.258-.26-.334-.15-.408-.113-.407-.112-.334-.148-.26-.224-.073-.187-.038-.187.111-.336.186-.299.26-.185.333-.114.37-.037.408.037.444.075.408.187.408.261.37.299.297.41.259.448.149.523.073.597-.037.634-.185.71-.223.56-.222.522-.333.448-.334.448-.37.374-.445.299-.89.521-1.037.337-1.037.112-1.074-.075-1.038-.224-1-.447-.927-.673-.408-.373-.37-.448-.334-.486-.296-.522-.26-.597-.184-.634-.15-.71-.074-.709v-.783l.075-.822.111-.895.222-.934.26-.597.296-.56.334-.485.37-.447.816-.71.926-.598.963-.41.963-.298.927-.224.889-.112.816.037.815.075.742.112.74.149.667.223.667.224 1.186.635 1.038.783.888.934.74 1.045.557 1.195.408 1.343.222 1.42.075 1.53-.111 1.605-.297 1.717-.444 1.79-.667 1.83-.816 1.903-.148.373.037.075.111.037.408-.26.519-.3.481-.299.778-.447.74-.373.668-.336.74-.262.891-.26.519-.112.555-.15.667-.112.705-.15h2.444l1.076.076 1 .112.889.185.852.226.741.26.705.336.63.374.592.448.594.522.517.56.557.672.481.71.52.783.518.858.927.896 1 .783 1.111.635 1.26.486 1.335.372 1.48.224 1.632.15h1.741l.556-.262.444-.299.26-.335.037-.224v-.224l-.111-.224-.186-.149-.184-.038-.222.038-.446.15-.519.073-.37-.112-.297-.11-.222-.15-.222-.187-.259-.447-.074-.486.074-.486.184-.448.297-.41.408-.261.556-.149.519-.075h.482l.444.037.408.112.37.15.333.224.26.26.26.262.185.336.295.709.075.821-.111.859-.222.56-.37.447-.483.41-.592.337-.741.224-.779.223-.926.15-.963.111-1.038.076-1.111.037-2.298.037H167.855zm-8.706-9.741l-1.446.075-1.444.26-1.446.448-1.408.56-1.371.71-1.334.783-1.334.896-1.297.933-2.482 2.015-2.335 2.017-1.075.97-1.074.896-1.001.822-.926.745-.408.262-.408.224-.74.335-.89.3-.482.186-.555.261 18.526-.075-1.074-.672-.89-.784-.702-.858-.52-.898-.37-.932-.148-.933v-.97l.147-.932.297-.933.445-.896.63-.821.704-.747.89-.635.963-.56 1.11-.41 1.224-.299.926.038.815.149.705.299.592.41.482.448.37.523.26.597.112.56v.56l-.15.56-.296.484-.445.411-.592.336-.74.224-.891.075h-.518l-.557-.075-.628-.298-.594-.225-.555-.149-.483-.112-.444-.037h-.408l-.333.074-.297.112-.259.15-.222.223-.148.224-.111.262-.112.597.112.67.259.712.444.708.63.71.778.635.964.56 1.112.409.592.15.667.15.704.037.742.037.888-.3.816-.298.778-.335.704-.375.63-.371.593-.411.519-.448.444-.447.408-.45.333-.484.297-.448.222-.486.148-.522.111-.486.075-.485v-.484l-.186-.97-.37-.934-.593-.859-.407-.41-.408-.41-.482-.374-.556-.336-.555-.299-.63-.299-.705-.26-.741-.224-.778-.187-.814-.15z"/>
    <path fill="#D1A35A" d="M167.003 59.758l-.076.523-.146.336-.223.187-.333.073-.408-.036-.444-.112-.556-.15-.593-.223-1.371-.486-.742-.26-.777-.188-.816-.111-.852-.037-.89.037-.89.187-.85.185-.742.15-1.334.336-1.297.373-.703.262-.78.335.335-.485.556-.485.703-.486.852-.484 1.002-.486 1.074-.41 1.111-.374 1.186-.26 1.223-.224 1.186-.112 1.148.037 1.112.148 1 .3.927.447.407.299.37.336.333.41zM153.996 54.047l-.073.187-.075.224-.258.56-.335.67-.37.672-.408.635-.408.523-.37.336-.185.112-.148.038v-.262l.111-.41.186-.486.222-.56.184-.559.15-.598.073-.56-.037-.485v-.41l-.075-.41-.258-.859-.408-.897-.334-.82-.222-.822-.036-.372.036-.336.111-.337.26-.298.334-.262.48-.224.556.187.445.224.408.26.296.3.26.336.185.335.11.411.112.411.038.858-.111.896-.186.897zM150.292 60.505l.888-1.083.927-1.157.964-1.158.963-1.082.519-.448.518-.41.519-.298.556-.224.556-.15h.592l.594.112.63.262.147.41.037.373-.073.336-.15.3-.221.26-.297.262-.74.41-.852.373-.89.3-.853.297-.667.262-.147.112-.222.224-.297.26-.334.3-.74.67-.816.635-.37.3-.297.223-.297.15-.222.074-.148-.037-.038-.149.075-.262zM146.066 59.534l.15.596.11.747.038.822-.038.895-.11.934-.296.895-.41.858-.295.374-.333.373.11-.932v-.822l-.148-.71-.221-.634-.261-.56-.334-.484-.665-.822-.298-.373-.258-.336-.187-.298-.073-.3.073-.298.187-.3.369-.335.557-.373h.446l.405.076.334.073.297.112.483.336zM143.398 71.777l.335-.262.295-.112.297-.148.298-.262.295-.298.63-.71.63-.746.63-.672.333-.262.333-.224.335-.112h.37l.37.075.372.224.184.56v.486l-.11.484-.26.448-.334.374-.445.336-.482.335-.516.261-1.15.337-.556.112-.52.074h-.442l-.41-.037-.295-.112zM149.328 73.68l.036.3-.036.297-.111.225-.223.187-.26.149-.333.036h-.408l-.481-.112-.816-.373-.74-.224-.74-.112-.743-.037-.778.075-.776.15-.892.148-.962.225.148-.374.298-.372.37-.3.444-.298.554-.262.594-.224.666-.186.667-.112.67-.112h.665l.666.036.632.112.592.15.518.262.445.336zM124.5 78.46h74.701v-1.084h-74.7z"/>
    <path fill="#FEFEFE" d="M82.371 51.92l1.741-8.137h.556l-.075 1.083-.036.858.074 1.083.297.932.445.858.592.747.74.598.891.447.963.261 1.075.075.963-.075.89-.26.74-.411.63-.56.482-.672.333-.71.186-.783.074-.821-.038-.56-.111-.485-.148-.522-.222-.448-.222-.374-.297-.41-.37-.524-.482-.56-.556-.596-.593-.71-.741-.746-.778-.82-.703-.747-.594-.673-.444-.521-.297-.45-.297-.67-.222-.672-.148-.71-.036-.708.036-.56.075-.561.11-.521.185-.486.26-.485.26-.449.333-.448.407-.41.445-.373.482-.336.481-.262.556-.224.557-.185.592-.112.63-.075.666-.037.89.037.815.112.297.075.408.148.48.187.63.261.409.15.333.112.186.112.11.037.482.037.445-.037.37-.187.186-.187.186-.224.184-.26.222-.373h.594l-1.668 7.24h-.556l.037-.858v-.71l-.073-.932-.223-.822-.408-.783-.555-.673-.705-.521-.777-.411-.927-.224-1-.075-.816.075-.703.186-.668.299-.556.447-.444.486-.334.56-.185.56-.075.634.038.56.148.56.186.522.296.523.185.262.26.336.333.335.333.411.445.448.444.484.557.523.556.56.555.56.52.56.48.485.408.486.371.41.296.41.26.374.186.336.333.671.222.672.148.71.038.746-.038.822-.186.783-.259.82-.407.786-.482.746-.593.635-.667.56-.777.484-.816.374-.889.26-.927.188-.963.036-.927-.036-.852-.15-.481-.111-.594-.187-.741-.262-.852-.298-.556-.187-.48-.075-.445.075-.408.261-.333.41-.297.56zM101.64 51.397h10.153l1.555-5.412.186-.747.147-.634.075-.56.037-.485-.037-.41-.15-.336-.258-.262-.37-.186-.26-.038-.333-.074-.481-.038h-.556l.148-.56h8.707l-.184.56h-.52l-.445.075-.407.037-.296.112-.37.187-.298.224-.26.224-.183.262-.262.447-.294.635-.26.708-.26.897-3.89 13.586-.223.672-.147.596-.075.486-.036.373.036.262.075.224.11.224.186.148.296.112.446.112.554.075.742.075-.185.597h-8.374l.259-.597.593-.038.48-.037.372-.075.26-.074.517-.335.409-.411.222-.411.222-.598.26-.783.295-.932 1.928-6.757h-10.154l-2.037 7.092-.186.672-.149.596-.073.486-.036.373.036.262.073.224.113.224.185.148.296.112.446.112.555.075.741.075-.149.597h-8.374l.186-.597.592-.038.483-.037.37-.075.26-.074.519-.335.406-.411.222-.411.26-.598.26-.783.296-.932 3.742-13.29.223-.746.147-.671.075-.56.037-.448-.037-.41-.148-.336-.261-.262-.369-.186-.259-.038-.37-.074-.482-.038h-.557l.186-.56h8.596l-.184.56h-.52l-.444.075-.371.037-.297.112-.629.374-.261.224-.184.26-.26.448-.258.598-.297.747-.261.895z"/>
  </g>
</svg>
