<svg width="134" height="30" xmlns="http://www.w3.org/2000/svg">
  <g fill="none" fill-rule="evenodd">
    <path fill="#2C406D" d="M14.65 3.558l.583.017.582.037.564.072.547.108.564.125.529.163.53.18.51.198.494.234.494.252.935.577.864.666.81.739.724.829.652.882.565.956.246.486.23.522.194.523.176.522.158.559.124.558.106.558.07.577.036.594.017.595-.017.594-.036.595-.07.576-.106.559-.124.576-.158.54-.176.541-.194.523-.23.504-.246.504-.283.487-.282.468-.652.883-.724.829-.81.738-.864.667-.459.288-.476.288-.494.253-.494.234-.51.198-.53.18-.53.162-.563.126-.547.108-.564.073-.582.035-.582.019-.582-.019-.582-.035-.565-.073-.546-.108-.547-.126-.546-.162-.512-.18-.511-.198-.512-.234-.476-.253-.934-.576-.865-.667-.81-.738-.724-.829-.652-.883-.565-.955-.246-.504-.23-.504-.194-.523-.176-.54-.159-.54-.123-.577-.106-.559-.07-.576-.036-.595-.018-.594.018-.595.035-.594.071-.577.106-.558.123-.558.159-.56.176-.521.195-.523.229-.522.246-.486.565-.956.652-.882.723-.83.811-.738.865-.666.934-.577.476-.252.512-.234.511-.198.512-.18.546-.163.547-.125.546-.108.565-.072.582-.037z"/>
    <path fill="#D1A35A" d="M8.171 3.077l.182.033.166.1.1.148.032.2-.033.182-.1.166-.165.1-.182.032-.2-.033-.148-.1-.1-.165-.033-.182.033-.2.1-.149.149-.1zM10.093 2.115l.183.034.165.1.1.148.033.2-.033.182-.1.165-.165.1-.183.033-.198-.033-.15-.1-.1-.165-.032-.183.032-.199.1-.149.15-.1zM12.496 1.635l.183.033.165.1.1.149.033.198-.033.183-.1.166-.165.1-.183.032-.198-.033-.15-.099-.1-.166-.032-.183.033-.198.1-.15.149-.099zM14.9 1.154l.182.033.166.1.099.149.033.199-.033.182-.1.166-.165.1-.182.032-.2-.032-.148-.1-.1-.166-.033-.182.033-.2.1-.148.149-.1zM17.303 1.635l.182.033.166.1.1.149.032.198-.032.183-.1.165-.166.1-.182.033-.2-.033-.149-.1-.1-.165-.032-.183.033-.198.1-.15.148-.099zM19.226 2.115l.182.034.166.1.1.148.032.2-.033.182-.1.165-.165.1-.182.033-.2-.033-.15-.1-.1-.165-.031-.183.032-.199.1-.149.149-.1zM21.629 3.077l.182.033.166.1.1.148.032.2-.032.182-.1.166-.166.1-.182.032-.2-.033-.148-.1-.1-.165-.033-.182.033-.2.1-.149.149-.1zM23.551 4.52l.182.032.166.1.1.149.033.199-.033.182-.1.166-.166.1-.182.033-.2-.034-.149-.099-.1-.166L23.07 5l.033-.2.1-.149.149-.099zM24.992 6.442l.183.033.166.1.1.149.033.2-.033.181-.1.166-.166.1-.183.033-.198-.033-.15-.1-.099-.166-.033-.182.033-.2.1-.149.149-.099zM26.435 8.365l.183.034.165.1.1.148.032.2-.032.182-.1.166-.165.1-.183.032-.2-.033-.149-.1-.099-.165-.033-.183.033-.199.1-.149.149-.1zM27.396 10.77l.183.033.165.099.1.15.033.198-.034.182-.099.167-.165.099-.183.033-.199-.033-.149-.1-.1-.166-.033-.182.034-.199.1-.149.148-.1zM27.877 12.692l.182.033.166.1.1.149.032.2-.032.181-.1.166-.166.1-.182.033-.2-.033-.149-.1-.1-.166-.032-.182.033-.2.1-.149.148-.099zM27.877 15.096l.182.033.166.1.1.15.032.198-.032.182-.1.166-.166.1-.182.033-.199-.034-.15-.1-.1-.165-.032-.182.033-.199.1-.15.149-.1zM27.877 17.5l.183.033.165.1.1.149.032.199-.032.182-.1.166-.165.1-.183.033-.2-.034-.149-.1-.1-.165-.032-.182.033-.2.1-.148.149-.1zM26.916 19.904l.182.033.166.1.1.149.032.199-.033.182-.1.166-.165.099-.182.033-.2-.033-.149-.1-.1-.165-.032-.182.032-.2.1-.148.15-.1zM25.954 21.827l.183.033.165.1.1.148.033.2-.033.182-.1.166-.165.1-.183.032-.199-.033-.15-.1-.099-.165-.032-.182.032-.2.1-.149.15-.1zM24.512 23.75l.183.033.165.1.1.149.033.199-.033.182-.1.166-.165.1-.183.033-.2-.033-.148-.1-.1-.166-.032-.182.032-.2.1-.148.149-.1zM22.59 25.673l.182.033.166.1.1.149.032.199-.032.182-.1.166-.166.1-.183.033-.199-.033-.15-.1-.099-.166-.032-.182.032-.199.1-.15.149-.099zM20.667 26.635l.183.033.165.1.1.148.033.2-.033.181-.1.166-.165.1-.183.033-.199-.034-.15-.1-.099-.165-.032-.182.032-.199.1-.149.15-.1zM18.264 27.596l.183.034.165.1.1.148.033.199-.033.182-.1.165-.165.1-.183.034-.199-.034-.15-.1-.1-.165-.032-.182.033-.2.1-.148.15-.099zM15.861 28.077l.183.033.166.1.1.148.032.2-.033.182-.1.166-.165.1-.183.032-.2-.032-.148-.1-.1-.166-.033-.183.033-.199.1-.148.149-.1zM13.458 28.077l.182.033.166.1.1.148.032.2-.032.182-.1.166-.166.1-.182.032-.2-.032-.148-.1-.1-.166-.033-.183.033-.199.1-.148.149-.1zM11.055 27.596l.182.034.165.1.1.148.033.199-.033.182-.1.165-.165.1-.182.034-.2-.034-.148-.1-.1-.165-.033-.182.033-.2.1-.148.149-.099zM9.132 26.635l.182.033.166.1.1.148.033.2-.034.181-.1.166-.165.1-.182.033-.2-.034-.148-.1-.1-.165-.033-.182.033-.199.1-.149.149-.1zM6.729 25.673l.182.033.166.1.1.149.033.199-.034.183-.1.164-.165.1-.182.034-.199-.034-.15-.1-.099-.164-.033-.183.033-.2.1-.148.15-.1zM5.287 23.75l.182.033.166.1.1.149.033.199-.034.182-.1.166-.165.1-.182.033-.199-.034-.149-.1-.1-.165-.033-.182.034-.2.1-.148.148-.1zM3.845 22.308l.183.032.165.1.1.15.033.198-.034.183-.099.165-.165.1-.183.033-.199-.033-.15-.1-.099-.165-.033-.183.033-.198.1-.15.15-.1zM2.403 19.904l.182.033.166.1.1.149.033.198-.034.183-.099.166-.166.1-.182.032-.2-.033-.148-.1-.1-.165-.032-.183.032-.198.1-.15.149-.099zM1.923 17.5l.182.033.166.1.1.149.032.199-.033.182-.099.166-.166.1-.182.033-.2-.034-.148-.1-.1-.165-.033-.182.033-.2.1-.148.149-.1zM1.442 15.096l.182.033.166.1.1.15.033.198-.034.182-.1.166-.165.1-.182.033-.2-.034-.148-.1-.1-.165-.033-.182.034-.199.099-.15.149-.1zM1.442 12.692l.182.033.166.1.1.149.033.2-.034.181-.1.166-.165.1-.182.033-.2-.033-.148-.1-.1-.166-.033-.182.034-.2.099-.149.149-.099zM1.923 10.77l.182.033.166.099.1.15.032.198-.033.182-.099.167-.166.099-.182.033-.2-.033-.148-.1-.1-.166-.033-.182.033-.199.1-.149.149-.1zM2.884 8.365l.182.034.166.1.1.148.032.2-.032.182-.1.166-.166.1-.182.032-.199-.033-.15-.1-.099-.165-.033-.183.033-.199.1-.149.149-.1zM4.326 6.442l.182.033.166.1.099.149.033.2-.033.181-.1.166-.165.1-.182.033-.2-.033-.148-.1-.1-.166-.033-.182.033-.2.1-.149.149-.099zM6.248 4.52l.183.033.165.099.1.15.033.198-.033.182-.1.167-.165.099-.183.033-.199-.033-.15-.1-.099-.166L5.768 5l.032-.199.1-.149.15-.1zM26.915 15.345l-.018-.626-.054-.627-.07-.61-.108-.608-.144-.591-.16-.59-.198-.575-.215-.554-.25-.538-.269-.537-.287-.52-.322-.483-.34-.484-.358-.466-.394-.447-.412-.43-.411-.394-.448-.394-.466-.358-.483-.34-.5-.323-.503-.286-.537-.287-.537-.233-.555-.233-.573-.179-.573-.16-.591-.144-.608-.108-.61-.072-.625-.053-.628-.018-.627.018-.626.053-.61.072-.608.108-.59.143-.591.161-.573.18-.555.232-.537.233-.538.287-.52.286-.482.322-.484.34-.466.359-.447.394-.43.394-.394.43-.394.447-.358.466-.34.484-.322.483-.287.52-.286.537-.233.538-.233.554-.179.574-.16.59-.144.592-.107.609-.072.609-.054.627-.018.626.018.627.054.628.072.608.107.61.143.59.161.574.18.573.232.554.233.538.286.537.287.502.322.502.34.483.358.466.394.448.394.412.43.412.447.393.466.358.484.341.483.322.52.286.537.27.537.25.555.215.573.197.59.162.591.142.609.108.609.072.626.053.627.018.628-.018.626-.053.609-.072.608-.108.591-.142.573-.162.573-.197.555-.215.537-.25.537-.27.502-.286.501-.322.483-.34.466-.359.448-.393.411-.412.412-.412.394-.448.358-.466.34-.483.322-.502.287-.502.269-.537.25-.538.215-.554.197-.573.161-.574.144-.59.107-.61.071-.608.054-.628.018-.627zM14.668 3.328l.609.017.609.036.609.09.59.108.573.125.573.16.555.198.538.215.537.233.519.268.501.287.484.304.465.34.448.36.447.375.412.394.394.43.376.43.358.448.34.483.305.484.286.501.269.52.233.537.214.537.198.555.16.574.126.59.108.592.089.59.036.61.017.626-.017.61-.036.609-.09.609-.107.59-.125.574-.161.573-.198.555-.214.537-.233.538-.269.52-.286.5-.304.484-.34.466-.359.448-.376.447-.394.412-.412.394-.447.376-.448.359-.465.34-.484.304-.501.287-.52.268-.536.234-.538.214-.555.198-.573.16-.573.126-.59.107-.61.09-.608.036-.609.018-.627-.018-.608-.036-.591-.09-.59-.107-.592-.125-.573-.161-.555-.198-.537-.214-.537-.234-.52-.268-.5-.287-.484-.304-.484-.34-.447-.359-.43-.376-.43-.394-.394-.412-.376-.447-.358-.448-.34-.466-.304-.484-.287-.5-.268-.52-.233-.538-.215-.537-.197-.555-.161-.573-.125-.574-.108-.59-.09-.61-.035-.609-.018-.609.018-.626.036-.61.09-.59.107-.592.125-.59.16-.574.198-.555.215-.537.233-.538.268-.519.287-.501.304-.484.34-.483.358-.448.376-.43.394-.43.43-.394.43-.376.447-.358.484-.34.483-.305.502-.287.519-.268.537-.233.537-.215.555-.197.573-.161.591-.125.59-.108.592-.09.608-.036.627-.017z"/>
    <path d="M29.319 15.327l-.018-.75-.054-.753-.09-.733-.143-.716-.16-.716-.197-.697-.233-.68-.25-.662-.304-.645-.322-.644-.34-.608-.393-.59-.412-.573-.43-.555-.465-.537-.482-.5-.501-.484-.537-.465-.555-.43-.572-.411-.59-.394-.626-.34-.626-.322-.644-.304-.68-.25-.68-.233-.698-.197-.697-.161-.734-.143-.733-.09-.75-.053-.753-.018-.75.018-.752.053-.733.09-.716.143-.716.161-.697.197-.68.233-.661.25-.645.304-.643.322-.609.34-.59.394-.573.411-.554.43-.537.465-.5.483-.484.501-.465.537-.429.555-.411.573-.394.59-.34.608-.322.644-.304.645-.25.662-.233.68-.197.697-.16.716-.143.716-.09.733-.054.752-.018.751.018.752.054.751.09.735.142.733.161.698.197.698.233.68.25.68.304.644.322.626.34.626.394.59.411.573.43.555.464.537.484.5.5.484.537.465.554.43.573.411.59.393.609.34.643.323.645.304.66.25.681.233.697.197.716.16.716.144.733.09.752.053.75.018.752-.018.751-.053.733-.09.734-.143.697-.161.698-.197.68-.232.68-.251.644-.304.626-.322.626-.34.59-.394.572-.411.555-.43.537-.465.5-.483.483-.5.465-.538.43-.555.412-.573.393-.59.34-.626.322-.626.304-.645.25-.68.233-.68.197-.697.16-.698.144-.733.09-.735.053-.75.018-.753zM14.65.977l.734.018.734.054.715.09.715.124.698.161.68.197.662.233.662.25.626.287.626.322.608.34.572.375.573.394.536.43.519.447.5.483.484.501.447.52.43.536.393.572.375.573.34.608.323.609.285.644.251.644.233.662.197.698.16.68.126.716.09.715.053.734.017.733-.017.734-.054.734-.09.716-.125.715-.16.698-.197.68-.233.662-.25.662-.286.627-.322.626-.341.608-.375.573-.394.572-.429.537-.447.519-.484.501-.5.483-.519.447-.536.43-.573.394-.572.375-.608.34-.626.322-.626.287-.662.25-.662.233-.68.197-.698.16-.715.126-.715.09-.734.053-.734.018-.733-.018-.733-.054-.716-.09-.715-.124-.68-.161-.698-.197-.661-.232-.645-.251-.643-.287-.609-.322-.608-.34-.572-.375-.573-.394-.537-.43-.518-.447-.5-.483-.484-.501-.447-.52-.43-.536-.393-.572-.375-.573-.34-.608-.322-.626-.287-.627-.25-.662-.233-.662-.196-.68-.161-.698-.126-.715-.089-.716-.054-.734-.018-.734.018-.733.054-.734.09-.715.125-.716.16-.68.197-.698.233-.662.25-.644.287-.644.322-.609.34-.608.375-.573.393-.572.43-.537.447-.519.483-.501.5-.483.52-.447.536-.43.573-.394.572-.375.608-.34.609-.322.643-.287.645-.25.661-.233.698-.197.68-.16.715-.126.716-.09.733-.053.733-.018z" fill="#D1A35A"/>
    <path fill="#FEFEFE" d="M6.248 17.5l.858-3.926h.274l-.037.522-.018.415.037.522.146.45.219.414.291.36.365.289.439.216.474.126.53.036.474-.036.438-.126.365-.199.31-.27.238-.324.164-.342.091-.378.037-.397-.019-.27-.055-.233-.072-.253-.11-.216-.11-.18-.145-.198-.183-.253-.237-.27-.274-.287-.292-.343-.365-.36-.383-.396-.347-.36-.292-.325-.22-.251-.145-.217-.146-.324-.11-.324-.073-.343-.018-.341.018-.27.037-.271.055-.252.09-.234.129-.234.127-.217.164-.216.201-.198.22-.18.237-.162.237-.126.273-.108.275-.09.291-.054.31-.036.33-.018.438.018.4.054.147.036.2.072.238.09.31.126.201.073.164.054.092.054.054.017.237.018.22-.018.182-.09.092-.09.091-.108.09-.126.11-.18h.293l-.822 3.494h-.274l.018-.414v-.343l-.036-.45-.11-.396-.2-.378-.274-.325-.347-.251-.383-.198-.456-.108-.493-.037-.402.037-.346.09-.33.143-.273.216-.219.235-.164.27-.091.27-.037.306.019.27.072.27.092.252.146.253.09.126.129.162.164.162.164.198.22.216.218.234.274.252.274.27.274.271.255.27.237.234.201.234.183.199.146.197.128.18.091.163.164.324.11.324.073.342.018.36-.018.397-.092.378-.127.396-.201.378-.237.36-.293.307-.328.27-.383.234-.402.18-.438.126-.456.09-.475.018-.456-.018-.42-.072-.237-.054-.292-.09-.365-.126-.42-.144-.274-.09-.237-.036-.219.036-.2.126-.165.198-.146.27zM15.727 17.395h4.805l.736-2.613.088-.36.07-.306.035-.27.017-.235-.017-.198-.07-.162-.123-.126-.175-.09-.123-.019-.158-.035-.228-.019h-.263l.07-.27h4.121l-.087.27h-.246l-.21.037-.193.017-.14.055-.175.09-.141.108-.123.108-.087.126-.124.217-.14.306-.122.342-.123.433-1.841 6.559-.106.324-.07.288-.035.234-.017.18.017.127.035.108.053.108.088.072.14.054.21.054.263.036.351.036-.087.288h-3.964l.123-.288.28-.018.228-.018.176-.036.123-.036.245-.162.193-.198.105-.199.106-.288.122-.378.14-.45.912-3.262h-4.805l-.964 3.424-.088.324-.07.288-.035.234-.018.18.018.127.034.108.054.108.087.072.14.054.211.054.263.036.35.036-.07.288h-3.963l.088-.288.28-.018.229-.018.175-.036.123-.036.245-.162.193-.198.105-.199.123-.288.123-.378.14-.45 1.771-6.416.105-.36.07-.324.036-.27.017-.217-.017-.198-.07-.162-.124-.126-.174-.09-.123-.019-.176-.035-.227-.019h-.264l.088-.27h4.068l-.087.27h-.246l-.21.037-.176.017-.14.055-.298.18-.123.108-.088.126-.123.216-.122.289-.14.36-.124.432z"/>
    <path d="M132.722 9v11.077l.025.268.053.215.025.161.132.214.208.16.131.055.181.054.236.026H134v.322h-3.834v-.322l.443-.026.157-.054.13-.027.183-.16.13-.216.026-.16.052-.215.026-.295v-8.314l-.026-.51v-.348l-.025-.215-.078-.241-.131-.189-.13-.08-.21-.027-.234.027-.313.108-.157-.322L132.357 9h.365zm-9.364 7.172h3.548l-.026-.364-.052-.336-.05-.252-.051-.197-.282-.448-.152-.196-.205-.14-.407-.224-.46-.084-.331.028-.307.112-.306.196-.28.252-.255.336-.18.365-.127.447-.077.505zm-.1.568l.028.828.157.774.288.64.366.562.444.427.499.32.523.214.55.054.367-.028.367-.08.313-.132.289-.188.287-.266.236-.32.236-.428.21-.508.261.187-.132.615-.208.56-.315.534-.392.508-.446.427-.524.32-.576.187-.628.053-.682-.08-.627-.187-.575-.374-.524-.48-.237-.294-.208-.32-.184-.348-.13-.346-.132-.4-.079-.428-.026-.427-.026-.481.026-.507.053-.48.078-.428.106-.428.157-.373.183-.374.21-.32.235-.294.261-.268.288-.24.289-.186.314-.16.34-.134.34-.08.76-.08.629.053.575.16.498.294.471.373.367.482.26.56.158.64.053.695h-5.42zm-3.8-5.947v2.733h1.885v.607l-1.886.028v5.41l.026.359.027.304.081.248.082.165.133.139.136.083.323.055.296-.028.269-.139.243-.248.162-.303h.35l-.16.414-.217.359-.216.303-.268.249-.297.193-.297.166-.295.083-.297.027-.405-.056-.377-.192-.189-.11-.161-.167-.243-.385-.08-.249-.055-.276-.026-.387-.027-.414v-5.63h-1.267v-.277l.484-.276.512-.386.486-.525.43-.634.109-.193.135-.277.161-.358.162-.415h.27zm-7.448 3.138l-.45.083-.474.196-.21.166-.186.223-.185.278-.158.333-.132.39-.08.445-.053.5-.025.529.053.89.13.835.212.75.29.696.185.306.185.25.21.223.212.194.239.14.237.11.264.056.29.028.395-.056.37-.139.317-.222.29-.306.238-.417.185-.557.105-.723.027-.834-.027-.529-.026-.529-.079-.471-.106-.446-.291-.834-.395-.696-.317-.362-.37-.277-.421-.167-.449-.056zm.042-.448l.441.026.417.054.39.106.365.16.337.188.312.24.312.267.286.32.39.615.285.667.183.694.05.748-.024.534-.104.56-.156.561-.208.534-.286.534-.312.454-.39.374-.416.32-.442.24-.494.188-.495.107-.519.026-.442-.026-.416-.054-.39-.133-.338-.134-.363-.213-.312-.24-.286-.295-.26-.346-.39-.642-.286-.667-.156-.721-.052-.747.026-.534.104-.56.156-.562.234-.534.285-.507.339-.428.364-.374.416-.293.441-.213.468-.16.469-.108.467-.026zM98.408 15.08h5.56v-3.927l-.026-.324-.028-.27-.053-.19-.136-.19-.243-.19-.377-.163-.432-.053h-.432v-.326h5.155v.326h-.431l-.406.053-.404.163-.243.162-.135.245-.054.189-.027.244-.028.352v8.664l.028.352.053.244.028.19.161.189.217.19.404.162.406.054h.431v.325h-5.155v-.325h.432l.35-.027.297-.081.243-.136.19-.189.08-.19.081-.298.028-.406.026-.487v-3.682h-5.56v4.115l.028.352.053.244.027.19.136.189.242.19.378.162.432.054h.432v.325h-5.155v-.325h.431l.352-.027.296-.081.243-.136.19-.189.08-.19.081-.298.028-.406.026-.487v-8.259l-.026-.324-.028-.27-.054-.19-.135-.19-.243-.19-.377-.163-.433-.053h-.43v-.326h5.154v.326h-.432l-.432.053-.378.163-.217.162-.16.245-.055.189-.026.244-.028.352v3.899zm-13.907.133l.35-.412.349-.358.349-.274.35-.248.322-.192.322-.138.322-.082.323-.027.35.027.295.055.295.11.243.137.214.193.215.247.161.302.161.358.081.33.054.384.054.439v4.424l.027.302.054.247.052.165.109.193.187.137.135.055.16.055.242.027h.27V22h-4.03v-.33h.187l.484-.027.188-.055.133-.082.19-.22.107-.302.027-.11v-.165l.027-.247v-3.737l-.027-.522-.054-.468-.08-.356-.135-.303-.161-.22-.242-.165-.268-.11-.323-.027-.51.082-.511.22-.538.358-.51.521v4.782l.027.301.026.22.054.138.135.22.188.165.134.027.215.055.242.027h.296V22h-4.004v-.33h.188l.269-.027.241-.055.188-.11.135-.137.08-.192.08-.248.028-.357.027-.412v-3.737l-.027-.522-.027-.385-.027-.247-.08-.274-.107-.165-.162-.082-.215-.029-.269.029-.322.11-.135-.359 2.446-.988h.376v1.73zM76.54 13.93l-.449.083-.449.196-.237.166-.185.223-.184.278-.159.333-.132.39-.079.445-.053.5-.027.529.054.89.131.835.211.75.29.696.37.556.212.223.237.194.238.14.237.11.263.056.265.028.395-.056.37-.139.343-.222.29-.306.237-.417.159-.557.106-.723.026-.834-.053-1.058-.158-.917-.132-.417-.158-.417-.185-.362-.212-.334-.342-.362-.37-.277-.395-.167-.475-.056zm.51-.448l.417.026.415.054.39.106.365.16.363.188.312.24.286.267.286.32.416.615.286.667.156.694.051.748-.025.534-.104.56-.156.561-.208.534-.286.534-.312.454-.364.374-.416.32-.468.24-.467.188-.52.107-.52.026-.416-.026-.416-.054-.39-.133-.364-.134-.338-.213-.312-.24-.286-.295-.285-.346-.39-.642-.26-.667-.182-.721-.052-.747.025-.534.105-.56.181-.562.234-.534.286-.507.312-.428.39-.374.416-.293.442-.213.442-.16.468-.108.493-.026zm-13.106 0h3.709v.32l-.292.027-.212.107-.105.133-.027.188.027.133.053.16.105.161.133.213.106.188.186.24.582.935.636-.935.291-.374.186-.32.133-.241.026-.16-.026-.16-.107-.16-.185-.108-.291-.027v-.32h2.675v.32l-.424.08-.344.16-.212.215-.264.266-.318.375-.345.454-1.086 1.443 1.96 2.94.345.48.291.348.239.267.185.16.37.186.425.082v.293h-3.762v-.293l.344-.054.266-.134.131-.134.027-.187-.027-.133-.105-.214-.186-.32-.239-.375-1.165-1.736-1.272 1.736-.238.374-.185.268-.133.214-.026.106.053.187.159.188.238.16.344.054v.293h-2.596v-.293l.291-.082.266-.16.185-.16.238-.267.318-.374.345-.48 1.669-2.272-1.51-2.218-.292-.428-.264-.346-.24-.268-.185-.16-.397-.187-.477-.054v-.32zm-3.493 0v1.84l.232-.439.26-.357.232-.33.258-.247.259-.22.258-.138.232-.082.26-.027.232.027.207.055.18.083.155.137.207.303.052.192.026.191-.052.331-.155.274-.258.192-.26.055-.154-.027-.155-.055-.18-.11-.182-.137-.31-.22-.13-.054-.103-.029-.155.056-.181.11-.18.22-.182.274-.206.33-.207.412v4.287l.052.274.025.247.078.193.155.22.232.192.362.137.207.027h.258V22h-3.981v-.33h.285l.233-.055.18-.054.182-.082.18-.193.104-.275.026-.11v-.192l.026-.247v-4.205l-.026-.493v-.358l-.026-.192-.077-.247-.13-.165-.181-.082-.18-.029-.285.029-.311.11-.102-.359 2.352-.988h.362zm-4.041 0v5.669l.026.493v.383l.026.22.08.274.133.164.159.082.185.027.266-.027.319-.11.133.33L55.346 22h-.398v-1.725l-.478.52-.424.41-.346.302-.319.193-.53.218-.293.055-.318.027-.319-.027-.292-.082-.265-.11-.266-.192-.239-.219-.185-.246-.16-.247-.106-.301-.08-.356-.053-.41-.053-.466v-4.519l-.027-.22-.052-.192-.054-.136-.133-.192-.211-.137-.133-.055-.213-.055-.239-.027h-.292v-.328h2.788v5.56l.026.52.08.438.106.328.186.22.186.164.239.11.238.054.266.028.398-.055.452-.192.239-.136.292-.22.265-.246.319-.329v-4.684l-.027-.328-.026-.274-.08-.192-.106-.164-.16-.11-.211-.082-.292-.055-.372-.027v-.328h2.735zm-9.212-4.035v4.166h-.325l-.108-.565-.109-.51-.162-.457-.189-.403-.217-.322-.297-.296-.325-.27-.351-.213-.379-.19-.406-.134-.379-.08-.405-.027-.433.027-.406.108-.379.187-.325.242-.27.296-.19.296-.108.322-.027.35.027.295.082.27.108.241.162.215.162.188.217.189.243.187.325.216.352.241.378.242.46.242.488.27.756.429.65.35.514.322.379.268.298.242.243.296.217.296.189.322.135.323.108.35.054.322.027.35-.053.671-.217.618-.324.564-.46.511-.568.43-.65.323-.73.188-.785.054-.515-.027-.46-.054-.189-.027-.243-.08-.325-.081-.378-.134-.38-.135-.324-.08-.243-.028-.163-.026-.19.026-.162.082-.108.214-.08.35h-.326v-4.112h.325l.135.618.135.51.163.457.19.35.215.296.298.295.325.242.352.242.405.188.434.135.46.08.459.027.541-.027.46-.134.406-.188.352-.242.298-.323.189-.323.135-.376.027-.376-.053-.457-.19-.457-.298-.43-.46-.403-.108-.08-.136-.108-.189-.108-.216-.134-.244-.134-.297-.189-.704-.376-.703-.403-.623-.35-.486-.322-.38-.295-.297-.242-.27-.27-.244-.295-.19-.323-.134-.322-.109-.322-.054-.35-.027-.35.054-.644.19-.565.297-.538.433-.51.542-.403.594-.295.677-.162.73-.054.487.027.514.08.515.162.513.188.244.107.19.054.162.055h.108l.216-.028.163-.107.135-.188.108-.35h.325z" fill="#2C406D"/>
  </g>
</svg>
