<?xml version="1.0" encoding="utf-8"?><svg xmlns="http://www.w3.org/2000/svg" xmlns:xlink="http://www.w3.org/1999/xlink"><symbol viewBox="0 0 46 7" id="arrow-long" xmlns="http://www.w3.org/2000/svg"><path d="M44.19 3L42 .7l.667-.7L46 3.5 42.667 7 42 6.3 44.19 4H0V3z" fill-rule="evenodd"/></symbol><symbol viewBox="0 0 20 20" id="icon-calendar" xmlns="http://www.w3.org/2000/svg"><path d="M18.334 1.875h-2.709V.625a.624.624 0 1 0-1.25 0v1.25h-3.75V.625a.625.625 0 1 0-1.25 0v1.25h-3.75V.625a.625.625 0 1 0-1.25 0v1.25H1.667C.747 1.875 0 2.621 0 3.541v14.792C0 19.253.746 20 1.667 20h16.667c.92 0 1.666-.746 1.666-1.667V3.541c0-.92-.746-1.666-1.666-1.666zm.416 16.458c0 .23-.187.417-.416.417H1.667a.417.417 0 0 1-.417-.417V3.541c0-.23.187-.416.417-.416h2.708v1.25a.625.625 0 1 0 1.25 0v-1.25h3.75v1.25a.625.625 0 1 0 1.25 0v-1.25h3.75v1.25a.624.624 0 1 0 1.25 0v-1.25h2.709c.23 0 .416.187.416.416v14.792zM4.375 7.5h2.5v1.875h-2.5V7.5zm0 3.125h2.5V12.5h-2.5v-1.875zm0 3.125h2.5v1.875h-2.5V13.75zm4.375 0h2.5v1.875h-2.5V13.75zm0-3.125h2.5V12.5h-2.5v-1.875zm0-3.125h2.5v1.875h-2.5V7.5zm4.375 6.25h2.5v1.875h-2.5V13.75zm0-3.125h2.5V12.5h-2.5v-1.875zm0-3.125h2.5v1.875h-2.5V7.5z"/></symbol><symbol viewBox="0 0 8 11" id="icon-location" xmlns="http://www.w3.org/2000/svg"><path d="M4.006 5.447c-.996 0-1.805-.76-1.805-1.7 0-.938.809-1.699 1.805-1.699.996 0 1.805.761 1.805 1.7 0 .938-.809 1.7-1.805 1.7m0-5.448C1.8 0 .012 1.684.012 3.762c0 1.962 1.809 4.493 3.017 5.726.451.46.977 1.08.977 1.08s.564-.624 1.049-1.097C6.262 8.29 8 5.918 8 3.76 8 1.685 6.212 0 4.006 0"/></symbol><symbol viewBox="0 0 20 20" id="icon-man" xmlns="http://www.w3.org/2000/svg"><path d="M13.17 11.217a6.054 6.054 0 0 0 2.898-5.157C16.068 2.719 13.346 0 10 0 6.654 0 3.932 2.719 3.932 6.06c0 2.18 1.163 4.09 2.898 5.157-3.746.84-6.375 3.132-6.375 5.907 0 2.27 6 2.876 9.545 2.876s9.545-.606 9.545-2.876c0-2.775-2.629-5.068-6.375-5.907zM5.182 6.06A4.82 4.82 0 0 1 10 1.25a4.82 4.82 0 0 1 4.818 4.81A4.82 4.82 0 0 1 10 10.87a4.82 4.82 0 0 1-4.818-4.81zM10 18.75c-5.096 0-8.146-1.075-8.295-1.63.004-2.758 3.724-5 8.295-5 4.57 0 8.29 2.242 8.295 4.999-.145.555-3.196 1.631-8.295 1.631z"/></symbol><symbol viewBox="0 0 12 12" id="icon-man-fill" xmlns="http://www.w3.org/2000/svg"><path d="M6 7.2c-1.654 0-2.995-1.612-2.995-3.6S4.345 0 6 0c1.654 0 2.995 1.612 2.995 3.6S7.655 7.2 6 7.2zm5.87 3.06c.42.84-.239 1.74-1.137 1.74H1.267C.37 12-.29 11.1.13 10.32.67 9.24 1.687 8.34 3.005 7.8c.36-.18.779-.12 1.078 0 .6.36 1.198.54 1.917.54a3.56 3.56 0 0 0 1.917-.54c.3-.18.719-.18 1.078-.06 1.318.54 2.337 1.44 2.876 2.52z"/></symbol><symbol viewBox="0 0 12 12" id="icon-man-fill-old" xmlns="http://www.w3.org/2000/svg"><path d="M6 7.2c-1.654 0-2.995-1.612-2.995-3.6S4.345 0 6 0c1.654 0 2.995 1.612 2.995 3.6S7.655 7.2 6 7.2zm5.87 3.06c.42.84-.239 1.74-1.137 1.74H1.267C.37 12-.29 11.1.13 10.32.67 9.24 1.687 8.34 3.005 7.8c.36-.18.779-.12 1.078 0 .6.36 1.198.54 1.917.54a3.56 3.56 0 0 0 1.917-.54c.3-.18.719-.18 1.078-.06 1.318.54 2.337 1.44 2.876 2.52z"/></symbol><symbol viewBox="0 0 16 16" id="icon-phone" xmlns="http://www.w3.org/2000/svg"><path fill-rule="evenodd" d="M15.3 6.937a.698.698 0 0 1-.694-.62 5.558 5.558 0 0 0-4.94-4.925A.698.698 0 1 1 9.82.005a6.948 6.948 0 0 1 6.176 6.156.699.699 0 0 1-.696.776zm-2.796.007a.698.698 0 0 1-.685-.564 2.782 2.782 0 0 0-2.21-2.205.698.698 0 1 1 .268-1.37 4.17 4.17 0 0 1 3.313 3.308.698.698 0 0 1-.686.83zm-8.298-4.85h-2.11c-.248.02-.416.107-.536.25a.694.694 0 0 0-.16.51 13.163 13.163 0 0 0 2.037 5.735 13.01 13.01 0 0 0 3.983 3.976 13.215 13.215 0 0 0 5.733 2.038.634.634 0 0 0 .547-.205.693.693 0 0 0 .203-.494V11.79a.698.698 0 0 0-.602-.708 9.721 9.721 0 0 1-2.11-.525.697.697 0 0 0-.74.156l-.885.883a.7.7 0 0 1-.84.113A11.866 11.866 0 0 1 4.27 7.261a.696.696 0 0 1 .114-.838l.887-.887c.19-.19.25-.48.155-.733a9.667 9.667 0 0 1-.528-2.115.7.7 0 0 0-.692-.594zM13.188 16c-.055 0-.115-.003-.175-.008a14.637 14.637 0 0 1-6.348-2.252A14.394 14.394 0 0 1 2.26 9.342a14.564 14.564 0 0 1-2.252-6.35A2.088 2.088 0 0 1 .486 1.45a2.09 2.09 0 0 1 1.61-.753h2.117A2.1 2.1 0 0 1 6.283 2.5c.082.623.235 1.231.452 1.814a2.096 2.096 0 0 1-.472 2.207l-.504.504a10.487 10.487 0 0 0 3.205 3.2l.502-.5a2.103 2.103 0 0 1 2.215-.474 8.35 8.35 0 0 0 1.81.449 2.097 2.097 0 0 1 1.81 2.116v2.086a2.076 2.076 0 0 1-.609 1.48 2.087 2.087 0 0 1-1.48.619h-.024z"/></symbol><symbol viewBox="0 0 16 15" id="icon-print" xmlns="http://www.w3.org/2000/svg"><path d="M14.472 0H1.527C.687 0 0 .692 0 1.545v7.9c0 .869.687 1.582 1.527 1.582h1.06v3.323c0 .357.285.65.637.65h9.532a.638.638 0 0 0 .629-.65v-3.323h1.087a1.5 1.5 0 0 0 1.087-.476c.287-.3.441-.694.441-1.106v-7.9C16 .692 15.319 0 14.472 0zM12.11 13.708H3.86V5.89h8.25v7.818zm2.615-4.263c0 .145-.12.29-.254.29h-1.087v-4.5a.626.626 0 0 0-.63-.636H3.225a.633.633 0 0 0-.638.636v4.5h-1.06c-.132 0-.253-.14-.253-.29v-7.9c0-.142.114-.244.253-.244h12.945c.141 0 .254.106.254.244v7.9z"/><path d="M5.264 2.133h-2.04a.646.646 0 0 0-.638.65c0 .358.286.651.638.651h2.04a.646.646 0 0 0 .638-.65.646.646 0 0 0-.638-.65z"/></symbol><symbol viewBox="0 0 18 17" id="icon-star" xmlns="http://www.w3.org/2000/svg"><path d="M14.071 16.327l-.968-5.607 4.099-3.968-5.666-.818L9 .83 6.464 5.934l-5.666.818 4.1 3.968-.969 5.607L9 13.679l5.071 2.648z" fill-rule="evenodd"/></symbol><symbol viewBox="0 0 21 21" id="icon-zoom" xmlns="http://www.w3.org/2000/svg"><path d="M10.498 6.997a1.167 1.167 0 0 0 0 2.333h1.166v1.166a1.167 1.167 0 0 0 2.332 0V9.33h1.166a1.167 1.167 0 0 0 0-2.333h-1.166V5.831a1.167 1.167 0 0 0-2.332 0v1.166h-1.166zM.543 17.83a1.855 1.855 0 0 0 0 2.622 1.849 1.849 0 0 0 2.616 0l5.36-5.355a8.16 8.16 0 0 0 12.474-6.932A8.16 8.16 0 0 0 12.83 0a8.16 8.16 0 0 0-6.932 12.474L.543 17.83zm6.456-9.665a5.833 5.833 0 0 1 5.83-5.832 5.833 5.833 0 0 1 5.832 5.832 5.833 5.833 0 0 1-5.831 5.83 5.833 5.833 0 0 1-5.831-5.83z" fill-rule="evenodd"/></symbol></svg>