<svg width="20" height="20" xmlns="http://www.w3.org/2000/svg">
  <path d="M18.334 1.875h-2.709V.625a.624.624 0 1 0-1.25 0v1.25h-3.75V.625a.625.625 0 1 0-1.25 0v1.25h-3.75V.625a.625.625 0 1 0-1.25 0v1.25H1.667C.747 1.875 0 2.621 0 3.541v14.792C0 19.253.746 20 1.667 20h16.667c.92 0 1.666-.746 1.666-1.667V3.541c0-.92-.746-1.666-1.666-1.666zm.416 16.458c0 .23-.187.417-.416.417H1.667a.417.417 0 0 1-.417-.417V3.541c0-.23.187-.416.417-.416h2.708v1.25a.625.625 0 1 0 1.25 0v-1.25h3.75v1.25a.625.625 0 1 0 1.25 0v-1.25h3.75v1.25a.624.624 0 1 0 1.25 0v-1.25h2.709c.23 0 .416.187.416.416v14.792zM4.375 7.5h2.5v1.875h-2.5V7.5zm0 3.125h2.5V12.5h-2.5v-1.875zm0 3.125h2.5v1.875h-2.5V13.75zm4.375 0h2.5v1.875h-2.5V13.75zm0-3.125h2.5V12.5h-2.5v-1.875zm0-3.125h2.5v1.875h-2.5V7.5zm4.375 6.25h2.5v1.875h-2.5V13.75zm0-3.125h2.5V12.5h-2.5v-1.875zm0-3.125h2.5v1.875h-2.5V7.5z" fill="gray" fill-rule="nonzero"/>
</svg>
