<svg xmlns="http://www.w3.org/2000/svg" width="16" height="16">
  <path fill-rule="evenodd" d="M15.3 6.937a.698.698 0 0 1-.694-.62 5.558 5.558 0 0 0-4.94-4.925A.698.698 0 1 1 9.82.005a6.948 6.948 0 0 1 6.176 6.156.699.699 0 0 1-.696.776zm-2.796.007a.698.698 0 0 1-.685-.564 2.782 2.782 0 0 0-2.21-2.205.698.698 0 1 1 .268-1.37 4.17 4.17 0 0 1 3.313 3.308.698.698 0 0 1-.686.83zm-8.298-4.85h-2.11c-.248.02-.416.107-.536.25a.694.694 0 0 0-.16.51 13.163 13.163 0 0 0 2.037 5.735 13.01 13.01 0 0 0 3.983 3.976 13.215 13.215 0 0 0 5.733 2.038.634.634 0 0 0 .547-.205.693.693 0 0 0 .203-.494V11.79a.698.698 0 0 0-.602-.708 9.721 9.721 0 0 1-2.11-.525.697.697 0 0 0-.74.156l-.885.883a.7.7 0 0 1-.84.113A11.866 11.866 0 0 1 4.27 7.261a.696.696 0 0 1 .114-.838l.887-.887c.19-.19.25-.48.155-.733a9.667 9.667 0 0 1-.528-2.115.7.7 0 0 0-.692-.594zM13.188 16c-.055 0-.115-.003-.175-.008a14.637 14.637 0 0 1-6.348-2.252A14.394 14.394 0 0 1 2.26 9.342a14.564 14.564 0 0 1-2.252-6.35A2.088 2.088 0 0 1 .486 1.45a2.09 2.09 0 0 1 1.61-.753h2.117A2.1 2.1 0 0 1 6.283 2.5c.082.623.235 1.231.452 1.814a2.096 2.096 0 0 1-.472 2.207l-.504.504a10.487 10.487 0 0 0 3.205 3.2l.502-.5a2.103 2.103 0 0 1 2.215-.474 8.35 8.35 0 0 0 1.81.449 2.097 2.097 0 0 1 1.81 2.116v2.086a2.076 2.076 0 0 1-.609 1.48 2.087 2.087 0 0 1-1.48.619h-.024z"/>
</svg>
