<svg width="20" height="20" xmlns="http://www.w3.org/2000/svg">
  <path d="M13.17 11.217a6.054 6.054 0 0 0 2.898-5.157C16.068 2.719 13.346 0 10 0 6.654 0 3.932 2.719 3.932 6.06c0 2.18 1.163 4.09 2.898 5.157-3.746.84-6.375 3.132-6.375 5.907 0 2.27 6 2.876 9.545 2.876s9.545-.606 9.545-2.876c0-2.775-2.629-5.068-6.375-5.907zM5.182 6.06A4.82 4.82 0 0 1 10 1.25a4.82 4.82 0 0 1 4.818 4.81A4.82 4.82 0 0 1 10 10.87a4.82 4.82 0 0 1-4.818-4.81zM10 18.75c-5.096 0-8.146-1.075-8.295-1.63.004-2.758 3.724-5 8.295-5 4.57 0 8.29 2.242 8.295 4.999-.145.555-3.196 1.631-8.295 1.631z" fill="gray" fill-rule="nonzero"/>
</svg>
