<svg width="16" height="15" xmlns="http://www.w3.org/2000/svg">
  <g fill="#000" fill-rule="nonzero">
    <path d="M14.472 0H1.527C.687 0 0 .692 0 1.545v7.9c0 .869.687 1.582 1.527 1.582h1.06v3.323c0 .357.285.65.637.65h9.532a.638.638 0 0 0 .629-.65v-3.323h1.087c.41 0 .794-.171 1.087-.476.287-.3.441-.694.441-1.106v-7.9C16 .692 15.319 0 14.472 0zM12.11 13.708h-8.25V5.89h8.25v7.818zm2.615-4.263c0 .145-.12.29-.254.29h-1.087v-4.5a.626.626 0 0 0-.63-.636H3.225a.633.633 0 0 0-.638.636v4.5H1.527c-.132 0-.253-.14-.253-.29v-7.9c0-.142.114-.244.253-.244h12.945c.141 0 .254.106.254.244v7.9z"/>
    <path d="M5.264 2.133h-2.04a.646.646 0 0 0-.638.65c0 .358.286.651.638.651h2.04a.646.646 0 0 0 .638-.65.646.646 0 0 0-.638-.65z"/>
  </g>
</svg>
