<svg width="21" height="21" xmlns="http://www.w3.org/2000/svg">
  <path d="M10.498 6.997a1.167 1.167 0 0 0 0 2.333h1.166v1.166a1.167 1.167 0 0 0 2.332 0V9.33h1.166a1.167 1.167 0 0 0 0-2.333h-1.166V5.831a1.167 1.167 0 0 0-2.332 0v1.166h-1.166zM.543 17.83a1.855 1.855 0 0 0 0 2.622 1.849 1.849 0 0 0 2.616 0l5.36-5.355a8.16 8.16 0 0 0 12.474-6.932A8.16 8.16 0 0 0 12.83 0a8.16 8.16 0 0 0-6.932 12.474L.543 17.83zm6.456-9.665a5.833 5.833 0 0 1 5.83-5.832 5.833 5.833 0 0 1 5.832 5.832 5.833 5.833 0 0 1-5.831 5.83 5.833 5.833 0 0 1-5.831-5.83z" fill="#FFF" fill-rule="evenodd"/>
</svg>
